<?xml version="1.0" standalone="no"?>
<!DOCTYPE svg PUBLIC "-//W3C//DTD SVG 1.1//EN" "http://www.w3.org/Graphics/SVG/1.1/DTD/svg11.dtd">
<svg xmlns="http://www.w3.org/2000/svg">
<metadata>Copyright (C) 2018 by original authors @ fontello.com</metadata>
<defs>
<font id="fontello" horiz-adv-x="1000" >
<font-face font-family="fontello" font-weight="400" font-stretch="normal" units-per-em="1000" ascent="850" descent="-150" />
<missing-glyph horiz-adv-x="1000" />
<glyph glyph-name="instagram-with-circle" unicode="&#xe800;" d="M703 504a86 86 0 0 1-49 49 144 144 0 0 1-49 9c-27 1-35 2-105 2s-78-1-105-2a144 144 0 0 1-49-9 86 86 0 0 1-49-49 144 144 0 0 1-9-49c-1-27-1-35-1-105s0-78 1-105a144 144 0 0 1 9-49 86 86 0 0 1 49-49 144 144 0 0 1 49-9c27-1 36-1 105-1s78 0 105 1a144 144 0 0 1 49 9 86 86 0 0 1 49 49 144 144 0 0 1 9 49c1 27 2 36 2 105s-1 78-2 105a144 144 0 0 1-9 49z m-203-288a134 134 0 1 0 134 134 134 134 0 0 0-134-134z m139 242a31 31 0 1 0 31 31 31 31 0 0 0-31-31z m-52-108a87 87 0 1 0-87 87 87 87 0 0 0 87-87z m-87 500a500 500 0 1 1 500-500 500 500 0 0 1-500 500z m259-607a191 191 0 0 0-12-64 133 133 0 0 0-76-76 191 191 0 0 0-64-12c-27-1-36-1-107-1s-80 0-107 1a191 191 0 0 0-64 12 133 133 0 0 0-76 76 191 191 0 0 0-12 64c-1 27-1 36-1 107s0 80 1 107a191 191 0 0 0 12 64 133 133 0 0 0 76 76 191 191 0 0 0 64 12c27 1 36 1 107 1s80 0 107-1a191 191 0 0 0 64-12 133 133 0 0 0 76-76 191 191 0 0 0 12-64c1-27 1-36 1-107s0-80-1-107z" horiz-adv-x="1000" />

<glyph glyph-name="facebook-6" unicode="&#xe801;" d="M124-150v469h-124v169h124v145c0 113 73 217 242 217 69 0 119-7 119-7l-4-157s-51 0-108 0c-60 0-70-28-70-74v-124h183l-8-169h-175v-469h-179" horiz-adv-x="486" />

<glyph glyph-name="facebook-rect-1" unicode="&#xe802;" d="M183 850c-102 0-183-81-183-183l0-634c0-102 81-183 183-183l344 0 0 391-104 0 0 141 104 0 0 120c0 94 61 181 201 181 57 0 100-5 100-5l-4-132s-43 1-90 1c-50 0-58-24-58-62l0-103 152 0-6-141-146 0 0-391 141 0c102 0 183 81 183 183l0 634c0 102-81 183-183 183l-634 0z" horiz-adv-x="1000" />

<glyph glyph-name="twitter-6" unicode="&#xe803;" d="M749-25c0-34-13-64-37-88-25-25-54-37-89-37l-248 0c-103 0-192 36-265 110-73 73-110 161-110 264l0 501c0 35 12 65 37 89 24 24 54 36 89 36 34 0 64-12 88-37 25-24 37-54 37-88l0-181 353 0c32 0 60-12 83-35 22-22 34-49 34-81 0-32-12-59-34-82-23-23-51-34-82-34l-354 0 0-88c0-34 12-64 36-88 24-24 54-36 88-36l248 0c35 0 64-12 89-37 24-24 37-54 37-88" horiz-adv-x="749" />

<glyph glyph-name="twitter-bird-1" unicode="&#xe804;" d="M1231 732q-51-77-126-131 1-14 1-32 0-102-30-203-29-102-90-195-61-92-145-164-84-72-201-114-118-43-253-43-210 0-387 113 31-3 60-3 176 0 314 108-82 2-147 51-64 49-89 125 24-5 48-5 34 0 66 9-87 17-145 87-57 69-57 160l0 4q53-30 114-32-52 34-82 90-30 55-30 120 0 68 34 127 95-117 230-186 135-70 290-78-6 28-6 58 0 104 74 178 74 74 178 74 110 0 185-80 85 17 160 62-29-91-111-140 76 9 145 39z" horiz-adv-x="1231" />

<glyph glyph-name="vimeo-3" unicode="&#xe805;" d="M1158 619q-8-169-236-463-236-306-400-306-101 0-171 187l-94 343q-52 187-112 187-13 0-90-55l-55 70q86 76 169 151 114 99 171 104 135 13 166-185 34-212 47-264 39-177 86-177 36 0 109 114 73 115 78 174 10 99-78 99-42 0-86-18 86 278 327 270 180-5 169-231z" horiz-adv-x="1158.8" />

<glyph glyph-name="vimeo-rect" unicode="&#xe806;" d="M193 850c-107 0-193-86-193-193l0-614c0-107 86-193 193-193l614 0c107 0 193 86 193 193l0 614c0 107-86 193-193 193l-614 0z m517-197c3 0 6 0 9 0 74-2 108-50 104-143-3-69-52-164-146-285-97-126-179-189-247-189-41 0-77 38-106 115l-57 212c-22 77-45 115-69 115-6 0-24-11-56-34l-34 44c35 31 70 62 104 93 47 40 83 62 106 64 56 5 90-33 103-114 14-88 23-142 29-163 16-73 33-109 52-109 15 0 38 23 68 70 30 47 46 83 48 107 4 41-12 61-48 61-17 0-35-3-53-11 34 111 98 167 193 167z" horiz-adv-x="1000" />

<glyph glyph-name="tumblr-3" unicode="&#xe807;" d="M346 850v-253h237v-157h-237v-256c0-58 3-95 9-112 6-16 17-29 34-39 22-13 48-20 76-20 51 0 101 16 151 49v-157c-43-21-81-35-116-43-35-8-72-12-112-12-46 0-86 6-122 17-35 12-65 28-89 50-25 21-42 44-52 68-10 24-14 59-14 105v350h-111v142c39 13 73 31 101 55 28 24 50 52 67 86 17 33 29 75 35 127h143" horiz-adv-x="616.1" />

<glyph glyph-name="tumblr-rect" unicode="&#xe808;" d="M193 850c-107 0-193-86-193-193l0-614c0-107 86-193 193-193l614 0c107 0 193 86 193 193l0 614c0 107-86 193-193 193l-614 0z m242-141l99 0 0-177 166 0 0-109-166 0 0-179c0-40 2-66 7-78 4-11 12-20 23-27 16-9 33-14 53-14 36 0 71 12 106 35l0-110c-30-14-57-24-81-30-24-6-51-8-79-8-31 0-60 4-84 12-25 8-45 19-63 34-17 15-29 31-36 48-6 16-10 41-10 73l0 244-77 0 0 99c28 9 51 21 71 38 19 17 35 36 47 60 11 23 20 53 24 89z" horiz-adv-x="1000" />

<glyph glyph-name="googleplus-rect" unicode="&#xe809;" d="M92 850c-51 0-92-26-92-92l0-79c4 3 8 7 12 11 83 68 173 80 250 81l307 0-82-66-89 0c36-31 89-86 89-184 0-108-57-159-118-207-19-19-41-40-41-72 0-32 22-49 38-63l52-40c64-54 148-117 148-217 0-27-3-52-12-72l354 0c51 0 92 28 92 79l0 580-184 0 0-185-79 0 0 185-184 0 0 78 184 0 0 184 79 0 0-184 184 0 0 171c0 66-41 92-92 92l-816 0z m908-263l0-78 1 0 0 78-1 0z m-813 135c-38 0-78-19-102-48-24-31-28-70-28-108 0-98 51-242 176-242 36 0 74 9 98 36 27 31 37 72 37 93 0 106-60 269-181 269z m-187-398l0-259c66 53 180 44 235 47-20 27-43 54-43 99 0 25 7 40 14 57-16-1-32-3-46-3-66 0-120 26-160 59z m251-252c-13 0-91-3-152-24-21-8-69-26-99-66l0-53c0-51 41-79 92-79l377 0c2 7 6 12 6 26-1 75-80 115-190 194-12 2-19 2-34 2z" horiz-adv-x="1001" />

<glyph glyph-name="github-text" unicode="&#xe80a;" d="M527 850c-21 0-39-8-54-24-15-16-22-35-22-58 0-22 7-41 22-57 15-16 33-24 54-24 20 0 38 8 53 24 15 16 22 35 22 57 0 23-7 42-22 58-15 16-33 24-53 24z m164-156c2-13 3-29 3-49l0-43-53 0 0-106c15 2 27 3 37 3l16-1 0-2-1 0 0-196c0-61 8-106 23-134 20-38 57-57 110-57 38 0 71 7 98 22l0 109c-18-12-39-19-61-19-33 0-49 25-49 74l0 203 47 0c9 0 19 0 28-1 10-1 17-1 21-1l0 106-96 0 0 45c0 17 2 33 4 47l-127 0 0 0z m-501-87c-49 0-92-16-128-49-37-35-55-79-55-131 0-35 10-68 30-98 18-29 39-47 63-55l0-2c-24-10-35-36-35-77 0-31 12-54 37-70l0-2c-68-23-102-64-102-126 0-53 23-92 68-117 36-19 81-29 136-29 135 0 203 56 203 169 0 71-52 114-157 130-24 4-42 13-54 27-10 9-14 19-14 28 0 27 14 43 43 47 45 7 81 27 109 62 28 34 42 75 42 122 0 14-3 30-9 47 19 4 34 8 44 12l0 112c-46-17-86-26-121-26-31 18-64 26-100 26l0 0z m275-5c1-13 2-37 2-71l0-340c0-35-1-60-2-74l123 0c-1 16-2 43-2 80l0 336c0 32 1 55 2 69l-123 0z m-270-95c22 0 39-9 51-25 10-16 15-34 15-55 0-51-22-77-66-77-46 0-69 26-69 76 0 54 23 81 69 81z m7-445c62 0 92-19 92-56 0-39-28-59-84-59-64 0-96 19-96 57 0 39 29 58 88 58l0 0z" horiz-adv-x="924" />

<glyph glyph-name="github-5" unicode="&#xe80b;" d="M1079 851c-33 1-110-11-239-97-70 18-145 26-219 26-83 0-166-10-243-31-185 126-267 100-267 100-53-133-20-232-10-256-63-68-101-154-101-260 0-80 9-151 31-214 2-4 1-3 3-8 5-12 11-25 17-37 2-4 4-8 4-8 62-116 185-191 404-215l331 0c233 23 345 98 397 216l3 7c5 12 9 24 21 66 12 41 17 113 17 193 0 115-43 207-113 276 12 40 28 128-17 240 0 0-6 2-19 2z m-261-421c54 0 100-9 135-46l0 0c43-45 69-100 69-159 0-277-178-285-398-285-219 0-397 39-397 285 0 58 25 113 68 158 71 76 192 36 329 36 71 0 137 11 194 11z m-408-82c-46 0-83-61-83-137 0-77 37-138 83-138 45 0 82 61 82 138 0 76-37 137-82 137z m443 0c-45 0-82-61-82-137 0-77 37-138 82-138 46 0 83 61 83 138 0 76-37 137-83 137z" horiz-adv-x="1228" />

<glyph glyph-name="skype-4" unicode="&#xe80c;" d="M958 278c4 23 6 47 6 72 0 256-208 464-464 464-25 0-49-2-72-6-43 27-94 42-148 42-154 0-280-125-280-280 0-54 15-105 42-148-4-23-6-47-6-72 0-256 208-464 464-464 25 0 49 2 72 6 43-27 94-42 148-42 155 0 280 125 280 280 0 54-15 105-42 148z m-238-139c-19-28-48-50-86-66-38-16-82-24-134-24-61 0-113 11-153 33-29 15-52 36-70 62-18 27-27 52-27 77 0 15 6 28 17 38 11 11 25 16 42 16 14 0 25-4 35-12 10-9 18-21 24-36 8-19 17-34 26-46 9-12 21-22 38-30 16-8 38-12 65-12 37 0 67 8 90 24 23 16 34 35 34 59 0 19-6 34-18 45-13 12-29 21-48 27-20 6-47 13-80 20-45 10-83 21-113 34-31 14-55 31-73 54-18 23-27 52-27 85 0 33 10 61 29 86 19 25 46 45 82 58 35 13 77 20 126 20 38 0 71-4 99-13 29-9 52-21 71-36 18-14 32-30 41-46 8-17 13-33 13-48 0-15-6-28-17-39-11-12-25-18-41-18-15 0-27 4-35 11-7 7-16 18-24 33-12 22-25 39-41 51-15 12-40 18-75 18-32 0-58-7-78-20-19-13-29-28-29-46 0-11 4-21 10-29 7-8 16-15 27-21 12-6 24-10 36-14 12-3 32-8 60-15 36-7 67-16 96-25 29-9 53-21 73-34 20-13 36-30 48-51 11-20 17-45 17-74 0-36-10-68-30-96z" horiz-adv-x="1000" />

<glyph glyph-name="icq" unicode="&#xe80d;" d="M355 823c-31 7-57 4-84-10-29-18-46-47-53-86-7-41 0-80 21-120l10-14-34 11c-42 10-82 4-121-17-41-21-66-50-83-91-16-40-15-78 5-113 9-16 21-28 33-37 17-17 38-27 63-31l10-3-21-18c-20-17-31-38-38-59-7-26-4-51 10-75 7-11 14-21 25-28 11-10 25-17 42-18 31-7 64-7 99 4l-25-42-7-19c-15-45-10-84 11-125 10-16 21-30 32-43 17-15 38-25 64-32 42-11 84-10 125 11 40 21 65 55 78 98l1 8c27-30 52-49 80-56 29-9 57-7 82 10 24 14 41 38 50 67 7 31 7 62 0 97 14-9 28-16 45-21 45-14 84-12 124 9 38 21 63 55 76 99 11 42 8 83-13 122l-7 11c-11 17-22 34-39 46-14 9-31 16-47 24 44 21 75 50 89 88 10 31 7 57-7 82l0 3c-17 28-40 46-75 56-21 5-45 5-66 3l-47-10 16 36c14 45 10 88-14 129l-4 7c-22 36-53 57-95 68-44 11-84 7-124-14-39-21-68-54-80-96l0-3-2-10-5 10-14 26c-23 35-51 56-86 66z m359-85c7-14 11-31 11-49l-4-31c-5-16-13-30-21-42l-127-156c-13 10-27 17-41 24l-14 160-1 56 1 14c7 28 27 50 52 64 26 14 54 17 81 7 29-7 50-23 63-47z m-437-28c1 25 11 42 28 52 9 7 21 7 33 2 25-8 46-26 63-61 7-14 14-28 17-45l28-167-21-7-125 137-7 14c-12 26-19 50-16 75z m-76-165l38-15 124-91c-11-14-18-28-22-42l-204-25-14 2c-25 5-42 16-53 37-11 21-11 42-3 64 10 26 28 47 55 59 25 14 51 18 79 11z m134-230l10-28 4-10c-21-18-37-35-54-51l-42-35-11-7c-27-13-50-17-74-14-21 1-38 8-45 21l-4 16 3 12c7 21 25 43 58 58 17 7 31 14 42 17l113 21z m440 229c25 11 49 14 74 11 24-3 41-14 50-31l5-18-2-15c-10-25-31-45-67-60-14-7-29-10-46-13l-174-21-2 10-3 4 5 7 143 119 17 7z m-360-134c17 15 40 25 66 25 26 0 50-10 65-25 20-20 29-41 29-67s-9-49-29-66c-18-18-39-28-65-28-26 0-49 10-66 28-18 17-28 41-28 66s10 47 28 67z m33-205c2-48 7-98 14-153l0-57-2-14c-10-25-26-46-52-58-25-14-52-17-77-10-29 7-50 24-61 47-7 14-13 31-13 48l7 32c3 14 10 28 22 40l118 141c14-7 28-14 44-16z m108 19l59-61 37-45 7-14c13-24 20-47 17-74-3-25-11-43-28-50-10-7-21-7-33-6-26 7-48 28-63 62l-17 47-21 122 24 9 18 10z m64 87l159 14 56 1 14-1c22-7 41-20 53-41 14-15 21-36 21-60l-4-29c-7-28-24-49-48-60-26-14-51-17-79-7-17 4-29 11-38 22l-148 123 9 21 5 17z" horiz-adv-x="981" />

<glyph glyph-name="yandex" unicode="&#xe80e;" d="M456 306h-68c-107 0-210 64-210 224 0 167 97 235 196 235h82v-459z m107 544h-185c-181 0-334-113-334-333 0-132 74-230 207-278l-248-368c-8-12 0-21 13-21h115c10 0 16 3 19 9l225 362h81v-362c0-4 5-9 11-9h101c9 0 13 4 13 11v976c0 9-7 13-18 13" horiz-adv-x="580.6" />

<glyph glyph-name="yandex-rect" unicode="&#xe80f;" d="M177 850c-98 0-177-79-177-177l0-646c0-98 79-177 177-177l475 0 348 500-348 500-475 0z m266-183l113 0c7 0 11-2 11-8l0-622c0-4-2-7-8-7l-61 0c-4 0-7 3-7 6l0 230-50 0-137-230c-2-4-6-6-12-6l-71 0c-7 0-12 6-7 14l151 234c-81 31-127 93-127 177 0 140 94 212 205 212z m-3-54c-60 0-119-43-119-150 0-102 63-142 128-142l42 0 0 292-51 0z" horiz-adv-x="1000" />

<glyph glyph-name="vkontakte-rect" unicode="&#xe810;" d="M196 850c-108 0-196-88-196-196l0-608c0-108 88-196 196-196l608 0c108 0 196 88 196 196l0 608c0 108-88 196-196 196l-608 0z m112-226l197 0c41 0 73-1 94-4 21-4 41-10 59-20 20-11 35-25 45-43 10-18 15-39 15-63 0-27-7-51-21-72-13-22-32-37-56-47l0-3c34-8 62-22 83-45 21-22 31-52 31-90 0-28-5-52-16-73-10-21-24-39-42-53-21-16-44-28-70-35-25-7-56-10-95-10l-224 0 0 558z m140-102l0-118 17 0c24 0 41 0 51 0 9 1 19 3 30 8 11 5 19 13 23 22 4 9 6 20 6 32 0 9-2 19-7 28-4 10-11 16-21 21-10 4-20 6-33 6-13 1-32 1-57 1l-9 0z m0-214l0-140 7 0c37 0 62 0 76 1 14 0 28 4 43 10 13 6 22 14 28 24 6 11 8 23 8 36 0 18-3 31-10 41-7 10-18 17-32 22-8 3-20 5-35 6-14 0-34 0-59 0l-26 0z" horiz-adv-x="1000" />

<glyph glyph-name="odnoklassniki" unicode="&#xe811;" d="M290 850c-143 0-258-116-258-258 0-142 115-258 258-258 142 0 258 116 258 258 0 142-116 258-258 258z m0-151c59 0 107-48 107-107 0-59-48-107-107-107-59 0-107 48-107 107 0 59 48 107 107 107z m-213-374c-26 0-51-12-65-35-23-36-12-82 23-105 47-29 98-50 150-62l-144-144c-30-30-30-77 0-107 15-15 34-22 53-22 20 0 39 7 54 22l142 142 141-142c30-29 78-29 107 0 30 30 30 78 0 107l-144 144c53 12 103 33 150 62 35 23 46 69 24 105-23 35-69 46-105 23-105-66-241-66-347 0-12 8-26 12-39 12z" horiz-adv-x="579" />

<glyph glyph-name="odnoklassniki-rect" unicode="&#xe812;" d="M141 850c-78 0-141-63-141-141v-718c0-78 63-141 141-141h718c78 0 141 63 141 141v718c0 78-63 141-141 141h-718z m381-102c114 0 206-92 206-206 0-113-92-206-206-206-113 0-205 93-205 206 0 114 92 206 205 206z m-2-121c-46-1-83-39-83-85 0-47 38-85 85-85 47 0 86 38 86 85 0 47-39 85-86 85 0 0-1 0-2 0z m-168-298c11 0 22-3 32-9 84-53 193-53 277 0 28 18 65 9 83-19 18-28 9-65-19-83-37-23-77-40-119-50l115-115c23-23 23-61 0-85-24-23-62-23-85 0l-114 113-113-113c-11-12-27-18-42-18-16 0-31 6-43 18-23 24-23 62 0 85l115 115c-42 10-82 27-119 50-28 18-37 55-19 83 11 18 30 28 49 28 1 0 1 0 2 0z" horiz-adv-x="1000" />

<glyph glyph-name="friendfeed" unicode="&#xe813;" d="M717 850c-47 0-98-8-150-36-58 21-120 39-206 32-193-18-267-116-279-255-40-5-79-16-82-123-3-123 36-143 77-156l2-358c6-43-2-90 94-100l144-3c53-7 90 27 109 103 7-62 34-96 85-97l167 0c38 10 80 13 86 82l3 373 44-3c36 5 71 11 96 70l0 112c-7 46-19 40-32 50 34 8 70 11 82 94l-3 91c2 57-30 89-110 111-36 5-80 13-127 13z m-333-87c23 0 54-4 121-25l2-108c-35 12-65 26-89 23-76 3-83-35-87-75l0-77 193-2c4 102-23 232 146 254 73 10 141 1 192-21l-2-115c-27 22-62 29-100 34-104 14-80-79-85-148l139 0 0-102-139 0 2-460-153 4 0 456-200-4 0-452-153 0 4 452-75 0-2 115 81-5-2 32c3 74-3 202 156 222 20-1 33 1 51 2z" horiz-adv-x="957" />

<glyph glyph-name="friendfeed-rect" unicode="&#xe814;" d="M196 850c-108 0-196-88-196-196l0-608c0-108 88-196 196-196l608 0c107 0 195 88 195 196l0 608c0 108-88 196-195 196l-608 0z m478-138c35 0 66-6 93-10 58-15 82-39 81-81l2-67c-9-60-35-63-60-68 9-7 18-3 23-37l0-81c-18-44-44-48-70-52l-33 2-2-273c-4-50-34-53-62-60l-123 0c-37 1-57 26-62 71-14-56-41-80-79-75l-106 2c-70 7-64 42-68 73l-3 262c-29 10-57 25-55 114 2 79 30 87 60 90 8 102 62 174 204 187 62 5 108-8 150-23 38 20 76 26 110 26z m-244-64c-13 0-22-2-37-1-116-15-112-109-114-163l1-23-59 3 2-83 54 0-3-332 113 0 0 332 146 3 0-335 112-3-2 338 102 0 0 74-102 0c4 50-13 119 63 108 27-3 53-9 73-24l1 83c-37 16-87 23-141 16-123-16-103-111-106-186l-142 2 0 56c4 29 9 57 64 55 18 2 40-8 65-17l-1 79c-49 15-72 18-89 18z" horiz-adv-x="999" />

<glyph glyph-name="blogger-1" unicode="&#xe815;" d="M550 850l-300-1c-128-18-237-97-246-231-3-13-2-25-2-37-2-59-1-122-1-182 1-96-2-173 0-244 1-209 124-306 348-302 55 1 119 1 192-1 72 0 128-5 177 2 221 31 264 179 273 299l0 137c-6 140-108 178-194 181 9 35 12 82 3 146-10 124-98 221-250 233z m-251-187l245 0c135-18 129-164 0-185l-245 0c-135 18-129 164 0 185z m-56-404l450-2c136-17 136-183 5-203l-450 2c-139 17-137 182-5 203z" horiz-adv-x="991" />

<glyph glyph-name="blogger-rect" unicode="&#xe816;" d="M196 850c-108 0-196-88-196-196l0-608c0-108 88-196 196-196l608 0c108 0 196 88 196 196l0 608c0 108-88 196-196 196l-608 0z m338-187c94-8 149-68 155-146 5-40 4-70-2-91 54-2 116-26 120-113l0-86c-5-75-32-168-169-188-31-4-65-1-110-1-45 1-85 1-119 0-139-2-216 59-216 190-1 44 0 93 0 152 0 38-1 78 0 115 1 7 0 15 1 23 6 84 74 133 153 144l187 1z m-156-117c-80-13-84-105 0-116l152 0c80 13 84 105 0 116l-152 0z m-35-253c-82-13-83-117 3-127l279-1c82 12 82 116-3 127l-279 1z" horiz-adv-x="1000" />

<glyph glyph-name="deviantart" unicode="&#xe817;" d="M360 557l5-340-206 0c23 98 69 177 203 197l-2 44c-293-38-356-199-360-315l473 1 0 283c143 4 320-2 369-208l-210 2 0 144c-38 11-70 11-106 9l-2-230 469 0c5 230-199 334-520 329l0 84-113 0z" horiz-adv-x="993" />

<glyph glyph-name="jabber" unicode="&#xe818;" d="M225 850c-4 0-9 0-13-1l0 0c-18-2-37-2-55-5-35-5-68-16-101-29-12-5-24-10-35-16-4-2-11-3-14-7-2-1-2-5-2-8-1-6-2-13-2-19-3-26-4-52-1-77 1-8 4-23 14-24 15-3 27 16 35 27 17 24 37 47 66 58 34 13 73 16 109 18 102 7 212-11 287-86 10-11 20-22 29-34 33-48 51-103 59-161 4-27 7-54 1-81-11-47-39-88-71-123-23-23-47-45-73-64-15-11-31-20-45-32-15-14-28-31-38-49-27-50-34-109-26-164 2-11 3-22 6-33 0-4 1-9 3-12 4-5 15-8 21-8 6-1 10 4 12 10 3 10 1 21 0 31-4 20-7 40-6 61 2 38 17 74 43 101 27 28 63 44 94 68 61 47 116 111 137 187 8 27 10 56 7 84-5 35-18 71-30 104-37 102-101 198-202 245-40 18-82 26-126 32-20 3-40 5-61 6-7 0-15 1-22 1z m-53-421c-10-1-20-3-28-8-13-8-20-22-24-36-8-28-5-59 1-87 2-9 3-18 6-27 1-3 1-8 3-10 4-5 13-6 18-5 16 2 12 29 12 40-2 27-9 52-2 79 3 11 9 23 21 28 10 4 20-1 24-11 7-16 5-34 9-51 1-6 3-11 6-17 0-1 1-4 3-4 6 0 13 9 17 12 13 11 26 22 40 30 7 3 18 9 25 3 2-2 4-4 5-5 8-13 0-23-5-36-7-16-14-31-24-45-9-13-21-23-28-37-4-8-7-18-5-27 2-8 8-13 16-11 6 1 10 7 13 11 6 9 12 17 18 26 11 16 25 32 35 49 12 21 18 45 18 69 0 20-8 50-31 55-4 0-9 0-13-1-5-1-11-3-16-5-13-6-24-16-34-26-6-7-11-15-18-21 0 15-3 30-12 43-11 16-30 25-50 25z m-115-237c-1 0-2 0-3 0-20-3-26-19-22-37 4-22 22-40 40-54 46-35 105-54 162-51 22 1 47 5 67 14 11 5 23 23 8 31-2 1-5 2-7 2-7 1-14-1-20-3-11-3-22-6-33-8-34-6-71 2-98 22-23 16-41 37-58 59-10 12-19 26-36 25z m-21-111c-3 0-6 0-8-1-5 0-11 0-15-3-9-7 1-20 5-26 14-18 32-32 50-45 50-35 107-56 168-60 18-1 35 0 53 3 6 1 14 2 20 4 17 8 12 39-3 46-7 4-17-1-24-1-16-3-32-3-48-3-42 2-87 15-124 35-15 8-28 18-40 29-8 7-16 18-26 21-2 1-5 1-8 1z m3-95c0 0-1 0-1 0-7-1-13-4-17-10-4-3-7-7-8-11-11-26 17-50 36-62 21-13 43-23 67-31 53-19 115-31 169-14 17 5 33 14 44 26 7 7 12 18 0 22-8 3-17-4-23-6-16-7-32-11-48-13-22-3-42 2-63 7-18 5-37 9-54 16-15 5-30 12-43 21-4 3-8 5-11 9-11 11-19 25-30 36-4 5-11 10-18 10z" horiz-adv-x="667" />

<glyph glyph-name="lastfm-3" unicode="&#xe819;" d="M439 134l-37 99s-59-66-148-66c-78 0-134 69-134 178 0 140 70 190 140 190 100 0 132-65 159-148l37-114c36-110 105-199 302-199 141 0 237 43 237 157 0 92-52 140-150 163l-73 16c-51 11-65 32-65 66 0 39 30 62 81 62 54 0 84-21 88-70l114 14c-9 102-79 144-196 144-102 0-202-38-202-163 0-77 37-126 132-149l77-18c58-14 78-38 78-71 0-42-41-59-119-59-115 0-163 60-190 144l-38 114c-48 148-124 202-276 202-167 0-256-106-256-286 0-173 89-266 249-266 128 0 190 60 190 60z" horiz-adv-x="995" />

<glyph glyph-name="lastfm-rect" unicode="&#xe81a;" d="M196 850c-108 0-196-88-196-196l0-608c0-108 88-196 196-196l608 0c108 0 196 88 196 196l0 608c0 108-88 196-196 196l-608 0z m89-253c135 0 203-49 246-181l34-102c24-74 67-128 169-128 70 0 106 15 106 53 0 29-17 50-69 63l-69 16c-85 20-118 64-118 133 0 111 89 146 181 146 104 0 167-38 175-129l-102-13c-4 44-30 62-79 62-45 0-72-20-72-55 0-30 13-48 58-59l65-14c87-20 134-63 134-145 0-102-85-141-212-141-176 0-237 80-269 178l-33 102c-24 74-53 132-142 132-62 0-125-44-125-170 0-97 49-158 120-158 79 0 132 59 132 59l32-89s-54-54-169-54c-143 0-222 84-222 238 0 161 79 256 229 256z" horiz-adv-x="1000" />

<glyph glyph-name="linkedin-5" unicode="&#xe81b;" d="M238-150l0 675-225 0 0-675 225 0z m-113 767c79 0 127 52 127 116-1 67-48 117-125 117-77 0-127-50-127-117 0-64 49-116 124-116l1 0z m237-767l224 0 0 377c0 20 1 40 7 55 17 40 53 82 115 82 82 0 114-62 114-153l0-361 224 0 0 387c0 207-110 304-258 304-121 0-174-68-204-114l2 0 0 98-224 0c3-64 0-675 0-675z" horiz-adv-x="1046" />

<glyph glyph-name="linkedin-rect" unicode="&#xe81c;" d="M196 850c-108 0-196-88-196-196l0-608c0-108 88-196 196-196l608 0c107 0 196 88 196 196l0 608c0 108-89 196-196 196l-608 0z m49-165c52 0 84-34 85-79 0-43-33-78-86-78l-1 0c-50 0-83 35-83 78 0 45 34 79 85 79z m445-208c100 0 174-65 174-205l0-260-151 0 0 243c0 61-22 102-76 102-42 0-67-28-78-55-4-10-5-23-5-37l0-253-151 0s2 411 0 454l151 0 0-64c20 31 56 75 136 75z m-521-11l151 0 0-454-151 0 0 454z" horiz-adv-x="1000" />

<glyph glyph-name="picasa-1" unicode="&#xe81d;" d="M474 850c-55 0-106-11-157-22l377-343-5 301c-83 49-152 64-215 64z m-235-56c-262-184-242-367-236-551l416 382-180 169z m520-55l3-558 142 5c66 262-18 422-145 553z m-569-413l-169-163c66-151 119-195 172-237l-3 400z m88-205l-2-244c362-90 500 58 602 242l-600 2z" horiz-adv-x="927.2" />

<glyph glyph-name="wordpress-1" unicode="&#xe81e;" d="M502 850c-196 0-380-116-465-300l238 0 0-26c-73 9-67-30-56-70l156-391 115 269-53 126c-19 34-20 71-98 68l1 24 349-1 0-27c-41-3-90 10-64-74l141-370 77 216c26 91 2 178-28 264-17 57-9 105 66 124-114 117-249 168-379 168z m475-342l-227-590c63 54 127 74 205 224 52 124 47 239 22 366z m-964-10c-22-174-20-225 35-367 71-136 126-165 205-218l-240 585z m498-221l-168-404c118-34 223-30 320 8l-152 396z" horiz-adv-x="995" />

<glyph glyph-name="instagram-3" unicode="&#xe81f;" d="M749 849h-498c-138 0-249-111-249-248v-502c0-137 111-248 249-248h498c138 0 250 111 250 248v502c0 136-112 248-250 248z m157-750c0-86-70-156-157-156h-498c-87 0-157 70-157 156v324h197c-14-30-23-64-23-100 0-130 107-236 237-236 131 0 237 106 237 236 0 36-8 70-23 100h187v-324z m-499 224c0 54 44 98 98 98 54 0 98-44 98-98 0-54-44-98-98-98-54 0-98 44-98 98z m499 192h-264c-39 28-86 44-137 44-51 0-98-16-137-44h-274v86c0 86 70 156 157 156h498c87 0 157-70 157-156v-86h0z m-100 186h-85c-15 0-28-12-28-27v-86c0-15 13-27 28-27h85c16 0 28 12 28 27v86c0 15-12 27-28 27z" horiz-adv-x="1000" />

<glyph glyph-name="instagram-filled" unicode="&#xe820;" d="M604 339c0 54-45 98-99 98-54 0-98-44-98-98 0-54 44-98 98-98 54 0 99 44 99 98z m146 510h-500c-137 0-249-111-249-248v-69h367c39 27 86 43 137 43 51 0 99-16 137-43h358v69c0 137-112 248-250 248z m101-236c0-15-12-28-28-28h-85c-16 0-28 13-28 28v85c0 16 12 28 28 28h85c16 0 28-12 28-28v-85z m-109-274c0-130-106-236-237-236-131 0-237 106-237 236 0 36 8 70 23 101h-290v-341c0-137 112-248 249-248h500c138 0 250 111 250 248v341h-280c14-31 22-65 22-101z" horiz-adv-x="1000" />

<glyph glyph-name="diigo" unicode="&#xe821;" d="M251 457c112 2 173 61 230 117l0-673-112 0c-1 27-2 55-2 82l0 189c0 71 1 142 2 212-16-4-34-13-54-18-61-16-141-8-187 19 0-33 1-66 1-100l0-352c0-10 0-21-1-32l-113 0 0 675c58-62 122-121 236-119z m176 196c41 0 73 33 73 74s-32 74-73 74c-40 0-72-33-72-74s32-74 72-74z m-354 0c40 0 72 33 72 74s-32 74-72 74c-40 0-73-33-73-74s33-74 73-74z" horiz-adv-x="500" />

<glyph glyph-name="box-4" unicode="&#xe822;" d="M352 555c-76 0-146-24-204-64l0 285c0 41-33 74-74 74s-74-33-74-74l0-545c-1-10 0-63 3-78 24-171 171-303 349-303 194 0 352 158 352 353 0 194-158 352-352 352z m0-556c-113 0-204 91-204 204s91 203 204 203c112 0 203-91 203-203s-91-204-203-204z" horiz-adv-x="704" />

<glyph glyph-name="box-rect" unicode="&#xe823;" d="M193 850l614 0c107 0 193-86 193-193l0-614c0-107-86-193-193-193l-614 0c-107 0-193 86-193 193l0 614c0 107 86 193 193 193z m307-356c-53 0-102-17-143-46l0 200c0 29-23 52-51 52-29 0-52-23-52-52l0-382c-1-6 0-43 2-54 17-120 119-212 244-212 136 0 246 111 246 247 0 136-110 247-246 247z m0-389c-79 0-143 63-143 142 0 78 64 142 143 142s142-64 142-142c0-79-64-142-142-142z" horiz-adv-x="1000" />

<glyph glyph-name="tudou" unicode="&#xe824;" d="M499 850c-14 0-28 0-43-1-227-19-421-193-451-425-39-296 173-550 440-572 212-17 347 71 440 182 81 97 130 238 108 394-21 145-125 284-247 355-69 40-150 67-247 67z m2-96c51 0 103-9 156-29 137-74 246-183 247-371 1-215-151-391-367-409-235-20-489 174-440 475 31 185 198 335 404 334z m184-246c-66 0-133-42-128-123 61 40 171 47 255 16-3 72-65 108-127 107z m-375-1c-60 0-120-34-124-106 37 4 77 25 112 19-14-32-29-63-35-104-42 44-95-36-42-62-39-8-25-75 15-70 14 6 23 16 35 24 28-65 104 24 43 50 61 27-12 97-39 62 18 35 19 91 58 100 36 8 71-26 108-35 8 80-62 123-131 122z m-43-238c4 0 9-4 16-15-30-30-30 14-16 15z" horiz-adv-x="998" />

<glyph glyph-name="youku" unicode="&#xe825;" d="M450 710c-16 0-31-4-44-13-29-20-45-82-65-126-21-48-40-97-61-132-56 64-95 206-163 258-22 17-70 16-92 0-58-44 0-122 24-163 52-90 109-186 153-269-28-75-172-287 20-275 47 30 67 93 92 150 52 116 96 216 150 336 22 50 76 124 64 180-6 32-42 54-78 54z m466-46c-28 0-56-13-68-38-20-23-42-45-65-65-11-14-23-26-37-37-16-17-29-37-51-48l0 133c-1 72-136 72-136 0l0-378c6-27 18-47 47-51l41 0c28 5 44 22 48 51l0 82c0 28-5 76 13 48 28-28 67-57 102-89 34-31 67-81 102-88 73-16 106 54 79 105-29 54-111 88-147 136 24 55 154 88 143 184-4 37-37 56-71 55z" horiz-adv-x="1000" />

<glyph glyph-name="win8" unicode="&#xe826;" d="M986 850l-549-80 0-398 549 0 0 478z m-587-86l-399-58 0-334 399 0 0 392z m-399-430l0-339 399-58 0 397-399 0z m437 0l0-403 549-81 0 484-549 0z" horiz-adv-x="986" />

<glyph glyph-name="amex" unicode="&#xe827;" d="M47 664c-26 0-47-21-47-46v-535c0-26 21-47 47-47h907c25 0 46 21 46 47v535c0 25-21 46-46 46h-907z m-10-132h73l10-19v19h85l19-42 18 42h271c13 0 24-2 32-9v9h74v-9c13 7 29 9 47 9h107l10-19v19h80l11-19v19h77v-164h-78l-15 25v-25h-98l-10 27h-24l-11-27h-51c-20 0-35 5-45 10v-10h-121v38c0 5-1 5-4 5h-4l0-43h-234v21l-8-21h-49l-8 20v-20h-94l-11 27h-24l-11-27h-48v86l34 78z m-34-141h31l11 26h58l10-26h57v92l41-92h24l41 92 0-92h29v118h-47l-33-80-37 80h-46v-112l-47 112h-42l-50-118z m323 118v-118h93v24h-66v24h64v24h-64v21h66v25h-93z m113 0v-118h28v43h30c10 0 16-1 20-5 5-6 5-16 5-23l0-15h28v23c0 11-1 16-5 22-2 3-7 7-13 10 7 3 19 12 19 31 0 13-5 21-14 26-9 5-19 6-34 6h-64z m128 0v-118h29v118h-29z m100 0c-20 0-34-5-43-14-12-13-15-29-15-46 0-21 5-35 15-45 10-10 27-13 41-13h32l11 26h58l11-26h57v88l53-88h39v118h-28v-82l-49 82h-43v-112l-47 112h-42l-40-93h-12c-8 0-15 2-20 6-5 6-7 15-7 28 0 12 3 22 8 26 5 6 11 7 21 7h27v26h-27z m-594-20l19-47h-37l18 47z m664 0l20-47h-39l19 47z m-270-5h34c5 0 10 0 13-2 4-2 6-5 6-10 0-5-2-9-6-11-3-3-8-3-13-3h-34v26z m-266-153h150l22-25 23 25h101c11 0 30-2 39-10v10h90c9 0 27-2 38-10v10h136v-10c7 7 21 10 34 10h76v-10c8 6 19 10 35 10h52v-24h-56c-29 0-40-18-40-35 0-37 33-35 59-36 5 0 8-1 10-3 2-1 3-4 3-7 0-4-1-6-3-8-2-2-6-3-11-3h-54v-25h54c18 0 31 5 38 15v-31c-11-5-26-7-41-7h-73v10c-8-6-23-10-38-10h-228v38c0 4 0 5-5 5h-3v-43h-76v44c-12-5-26-6-39-6h-8v-38l-92 0-22 25-24-25h-147v164z m25-24v-118h110l36 39 35-39h54v40h35c24 0 49 7 49 39 0 33-25 39-48 39h-89l-35-39-35 39h-112z m331 0v-118h28v43h30c10 0 16-1 21-5 5-5 4-16 4-23v-15h28v24c0 10-1 15-5 21-2 4-7 8-13 10 7 3 20 13 20 31 0 14-6 21-15 26-9 5-19 6-33 6h-65z m128 0v-118h94v25l-66 0v23h64v24h-64v22h66v24h-94z m147 0c-29 0-40-18-40-35 0-37 33-35 59-36 5 0 8-1 10-3 2-2 3-4 3-8 0-3-1-6-3-7-2-3-6-3-12-3h-54v-26h55c28 0 44 12 44 38 0 12-3 19-9 24-6 7-17 10-32 10l-15 0c-4 0-8 1-11 2-3 1-6 4-6 8 0 4 1 7 5 9 2 2 6 2 11 2h51v25h-56z m-399-13v-94l-43 48 43 46z m-180-11h71l30-35-32-34h-69v23h62v24h-62v22z m208 0h36c10 0 17-4 17-15 0-10-6-16-17-16h-36v31z m125 0h34c5 0 10 0 14-2 3-2 5-6 5-11 0-5-2-9-5-11-4-2-9-2-14-2h-34v26z m360-1h51v-34c-1 1-2 2-3 3-6 7-16 9-32 10l-15 0c-4 0-8 0-10 1-4 2-7 5-7 9 0 4 2 7 5 9 2 2 6 2 11 2z" horiz-adv-x="1000" />

<glyph glyph-name="discover" unicode="&#xe828;" d="M46 664c-26 0-47-21-47-46v-535c0-26 21-47 47-47h907c26 0 46 21 46 47v535c0 25-20 46-46 46h-907z m480-177c1 0 1 0 2 0 44 0 79-35 79-79 0-43-35-79-79-79-44 0-79 36-79 79 0 43 34 78 77 79z m-250-3c16 0 30-6 42-16l-14-19c-7 8-14 11-23 11-12 0-20-6-20-15 0-8 4-12 21-18 32-12 41-22 41-45 0-28-20-47-49-47-21 0-37 8-50 27l18 18c7-13 18-20 31-20 12 0 22 9 22 21 0 6-3 11-9 14-3 2-8 5-19 9-26 9-35 19-35 39 0 23 19 41 44 41z m132 0c12 0 22-3 34-9v-33c-12 12-22 16-35 16-26 0-47-21-47-49 0-28 20-49 48-49 13 0 23 5 34 16v-33c-13-6-23-8-35-8-43 0-76 32-76 74 0 42 34 75 77 75z m-353-3h41c46 0 77-29 77-71 0-20-9-41-26-54-14-11-29-16-51-16h-41v141z m131 0h27v-141h-27v141z m409 0h31l38-96 38 96h31l-62-146h-15l-61 146z m149 0h79v-24h-51v-31h49v-24h-49v-38h51v-24h-79v141z m99 0h42c32 0 50-15 50-41 0-22-11-36-32-41l45-59h-35l-38 57h-4v-57h-28v141z m28-22v-43h8c18 0 27 8 27 22 0 14-9 21-26 21h-9z m-788-1v-95h7c19 0 30 4 39 12 10 8 15 22 15 36 0 13-5 27-15 35-9 8-20 12-39 12h-7z m904-135s1-152 0-232c0-7-3-18-11-27-8-10-20-14-27-14-8 0-725 0-725 0 492 85 763 273 763 273z" horiz-adv-x="1000" />

<glyph glyph-name="visa" unicode="&#xe829;" d="M40 664c-22 0-40-18-40-40v-548c0-22 18-40 40-40h920c22 0 40 18 40 40v548c0 22-18 40-40 40h-920z m557-187c25 0 44-5 57-10l-9-54-6 3c-11 5-26 10-47 9-24 0-35-11-35-21-1-11 13-19 35-30 36-18 53-39 52-67 0-52-43-85-109-85-28 1-55 6-70 13l9 56 8-4c21-10 34-13 59-13 18 0 38 7 38 24 0 11-8 18-33 30-24 12-55 32-55 67 1 48 44 82 106 82z m-509-8h102c13 0 24-5 28-20l22-112c0 0 0 0 0 0l7-34 61 166h67l-99-243-67 0-53 196c32-17 59-36 74-63-4 9-9 18-16 28-8 11-25 25-32 31-24 20-58 37-94 46l0 5z m313 0h65l-40-243h-65l40 243z m368 0h49l52-243h-59s-6 28-8 36c-9 0-74 0-82 0-2-6-13-36-13-36h-67l95 223c6 15 18 20 33 20z m5-66c-3-9-9-23-9-23 0 0-20-53-25-67l53 0c-3 12-15 70-15 70l-4 20z" horiz-adv-x="1000" />

<glyph glyph-name="mastercard" unicode="&#xe82a;" d="M47 655c-26 0-47-21-47-46v-535c0-26 21-47 47-47h907c25 0 46 21 46 47v535c0 25-21 46-46 46h-907z m281-76c57 0 109-19 151-53-35-31-61-71-74-117h20c12 38 34 72 62 98 28-26 49-60 61-98h20c-13 46-39 86-73 117 41 33 94 53 151 53 132 0 240-107 240-239 0-132-108-240-240-240-58 0-112 21-153 56 37 32 64 75 77 125h-20c-11-42-33-78-63-107-30 29-53 65-64 107h-19c13-49 40-92 77-124-42-34-95-54-153-54-132 0-240 106-240 238s108 238 240 238z m300-168c-29 0-57-25-57-72 0-32 15-52 45-52 9 0 22 3 22 3l4 27s-12-6-20-6c-18 0-25 14-25 28 0 30 15 46 32 46 13 0 23-7 23-7l4 27s-15 6-28 6z m242-2l-25 0-5-33s-10 13-24 13c-23 0-42-28-42-59 0-20 10-40 31-40 14 0 23 10 23 10l-1-8h24l19 117z m-717-1l-20-117h24l15 89 3-89h17l32 89-14-89h25l20 117h-40l-24-72-1 72h-37z m251-7c0-1-14-81-14-91 0-15 8-21 19-21 8 0 15 2 18 3 0 0 1 0 1 0l3 21c-2 0-4-1-7-1-8 0-9 5-9 8l7 43h13l4 23h-13l3 15h-25z m291-12c-17 0-30-6-30-6l-4-21s11 4 27 4c9 0 16-1 16-8 0-5-1-7-1-7s-7 1-10 1c-22 0-44-9-44-37 0-22 15-27 24-27 17 0 24 11 25 11l-1-9h22l9 69c0 29-25 30-33 30z m-404 0c-17 0-30-6-30-6l-4-21s11 4 27 4c9 0 16-1 16-8 0-5-1-7-1-7s-7 1-10 1c-22 0-44-9-44-37 0-22 15-27 24-27 17 0 25 11 25 11l-1-9h22l9 69c0 29-25 30-33 30z m76 0c-18 0-36-7-36-32 0-29 30-26 30-38 0-8-8-8-15-8-11 0-22 4-22 3l-3-21c1 0 7-3 28-3 5 0 37-2 37 31 0 31-30 25-30 37 0 6 5 8 14 8 3 0 17-1 17-1l3 22c0 0-9 2-23 2z m113 0c-25 0-44-27-44-58 0-35 24-43 44-43 18 0 26 4 26 4l4 24s-14-6-26-6c-27 0-22 20-22 20h50s4 16 4 22c0 17-8 37-36 37z m91-1c-11 0-20-15-20-15l3 14h-24l-16-97h26c8 41 9 75 27 69 3 16 6 22 9 28 0 0-2 1-5 1z m210 0c-11 0-19-15-19-15l2 14h-23l-16-97h26c7 41 8 75 26 69 3 16 6 22 9 28 0 0-1 1-5 1z m-301-21c14 0 12-16 12-17h-28c0 1 2 17 16 17z m339-2c10 0 14-6 14-20 0-13-6-31-20-31-9 0-13 8-13 19 0 20 8 32 19 32z m-124-33c3 0 4 0 5 0 0 0 0 0 0 0 0-4-3-25-17-25-8 0-10 6-10 10 0 7 4 15 22 15z m-404 0c4 0 4 0 5 0 1-5-2-25-17-25-8 0-10 6-10 10 0 7 4 15 22 15z" horiz-adv-x="1000" />

<glyph glyph-name="houzz" unicode="&#xe82b;" d="M289 850l0-333-289-167 0 333 289 167m-289-500l0-333 289 166-289 167 0 0m289-167l0-333 288 167 0 333-288-167m0 334l288-167 0 333-288-166" horiz-adv-x="577" />

<glyph glyph-name="bandcamp" unicode="&#xe82c;" d="M0 58l694 0 306 584-667 0z" horiz-adv-x="1000" />

<glyph glyph-name="codepen" unicode="&#xe82d;" d="M988 506c0 1-1 1-1 2 0 1 0 2 0 4-1 0-1 1-1 2 0 1-1 2-1 3 0 0-1 1-1 2-1 1-1 2-2 3 0 0 0 1-1 2 0 0-1 1-2 2 0 1 0 1-1 2-1 1-1 2-2 2-1 1-1 1-2 2-1 1-1 1-2 2-1 0-1 1-2 1 0 1-1 1-1 1l-451 301c-15 9-33 9-47 0l-452-301c0 0 0 0-1-1 0 0-1-1-2-1 0-1-1-1-2-2-1-1-1-1-2-2 0 0-1-1-2-2 0-1-1-1-1-2-1-1-2-2-2-2-1-1-1-2-1-2-1-1-1-2-2-3 0-1 0-2-1-2 0-1 0-2-1-3 0-1 0-2 0-2-1-2-1-3-1-4 0-1 0-1-1-2 0-2 0-4 0-5l0-301c0-2 0-4 0-6 1-1 1-1 1-2 0-1 0-2 1-3 0-1 0-2 0-2 1-1 1-3 1-4 1 0 1-1 1-2 1-1 1-2 2-2 0-1 0-2 1-2 0-1 1-2 2-3 0-1 1-1 1-2 1-1 2-1 2-2 1-1 1-1 2-2 1 0 2-1 2-2 1 0 2-1 2-1 1 0 1-1 1-1l452-301c7-5 15-7 23-7 8 0 16 2 24 7l451 301c0 0 1 1 1 1 1 0 1 1 2 1 1 1 1 2 2 2 1 1 1 1 2 2 1 1 1 1 2 2 1 1 1 1 1 2 1 1 2 2 2 3 1 0 1 1 1 2 1 0 1 1 2 2 0 1 1 2 1 2 0 1 1 3 1 4 0 0 0 1 1 2 0 1 0 2 0 3 0 1 1 1 1 2 0 2 0 4 0 6l0 301c0 1 0 3 0 5z m-451 216l332-221-148-100-184 123 0 198z m-85 0l0-198-184-123-149 100 333 221z m-367-301l106-71-106-71 0 142z m367-443l-333 222 149 99 184-123 0-198z m42 272l-150 100 150 100 150-100-150-100z m43-272l0 198 184 123 148-99-332-222z m366 301l-106 71 106 71 0-142z" horiz-adv-x="988" />

<glyph glyph-name="ball" unicode="&#xe832;" d="M987 361c1 5 4 8 3 12 0 24-4 46-7 68 0 0-1 0-1 0-1-1-2-2-3-3 0-1-1-1-1-2 0 0-1 0-1 0v0c0-1 0-1-1-1 0-1 0-1-1-2 0 0 0 0 0 0l-1 0c0-1 0-1-1-1 0-1-1-1-2-2l0 0h-1v0c0-1 0-1 0-1l0 0c-1 0-1 0-1 0-1-1-2-2-3-2-1-1-1-1-2-1-1-1-2-1-2-1-1-1-2-1-2-1-1 0-3-1-4-1 0 0-1-1-1-1h0c-1 0-2 0-3 0h0c-2 0-6-1-9-1-1 3-2 6-3 10-1 2-2 5-3 7 0 2 0 3-1 4-1 3-2 5-3 8 0 1-1 2-2 3-1 3-2 6-4 10-1 2-2 4-3 6 0 0 0 0 0 0-1 1-2 3-3 4 0 0 0 1 0 1-1 3-3 5-4 8-1 1-1 1-1 2-1 1-1 2-2 3-2 3-4 7-6 10-1 1-1 2-2 2-2 4-4 8-7 12 0 1 0 1 0 1-3 5-6 9-9 13v0c-2 3-4 7-6 9-1 2-2 3-3 4-1 2-3 4-4 6-8 11-15 20-22 28-3 2-5 5-7 7-1 1-2 2-2 2-1 1-2 2-2 2-2 1-3 2-4 3 1 4 2 7 3 11 2 6 3 12 3 19 0 4 0 8 0 13 0 4 0 8 0 12 0 1 0 2 0 4 0 3 0 7-1 10 0 2 0 3 0 5-1 3-1 6-2 9 0 1 0 3 0 4v1c-1 4-2 8-3 11 9-3 20-11 30-19 0 0 1 0 1 0 1-1 2-1 2-2 1 0 1-1 1-1 1-1 1-1 2-1 0-1 0-1 1-1 0 0 0-1 0-1 2-1 2-1 3-2 1 1 1 1 2 2 0 2-2 5-4 7-55 66-129 114-213 145-2 2-3 0-7-2 2 6-4 6-4 6-48 17-101 26-156 26-53 0-104-8-152-24l-2-6c0 0-18-2-28-5-79-33-148-86-200-152-2-4-1-9-1-9 7 5 30 25 50 39 0 0 0 0 1 1 1 0 3 1 4 2 1 0 1 1 2 1 1 1 2 2 3 2 1 0 2 1 2 1 1 1 2 1 4 2 0 0 0 0 0 0l1 0c1 1 3 2 4 2 0-1 0-3-1-4 0-1 0-1 0-1 0-2-1-3-1-5 0 0 0 0 0 0-1-4-1-8-2-12 0-3-1-6-1-9 0 0 0-1 0-1 0-3 0-5-1-8 0-1 0-2 0-3 0-2 0-5 0-7-1-1-1-3-1-3 0-1 0-3 0-4 0-3 0-6 0-9 0-2 0-3 0-4 0-3 0-6 0-9 1-3 1-6 1-9 0-2 1-3 1-4 0 0 0-1 0-1 0-5 1-9 2-13-4-3-8-6-12-10-2-1-3-2-5-4-1-1-2-2-4-3-1-2-3-4-5-5-2-2-3-3-4-5-2-1-3-2-4-4-2-1-4-3-5-5-2-2-4-5-7-7-1-2-2-4-3-5-1-1-1-1-2-2-1-1-2-2-3-4-2-2-4-5-6-8 0-1 0-1-1-2-1-1-2-3-3-4-1-3-3-5-4-8 0 0-1-1-1-1 0-1-1-2-2-2-2-4-3-8-5-12-1 0-1 0-1-1-2-4-4-8-5-12-3-5-5-10-6-14 0-1-1-1-1-2-1-4-2-8-4-12 0 0 0 0 0 0-3-10-5-18-6-26-1-4-1-9-2-13 0 0-1 0-2 0h-1c0 0-1 0-1 0 0 0-1 0-1 0h0c-1 1-2 1-3 1 0 0-1 0-1 0 0 0-1 0-2 0-1 0-1 0-1 0-2 1-2 1-2 1-1 0-2 0-3 0 0 0-1 0-1 0-2 1-2 1-4 1 0 0 0 0-1 0-1 0-2 0-3 1-2 0-5 1-7 1-1 1-2 1-4 1-1 0-2 0-3 0-1 1-3 1-4 1h-1c0 0-1 0-1 0-2 1-3 1-4 1-1 0-2 0-2 0l-1 0c0 0-1 1-2 1 0 0-1 0-1 0-1 1-1 2-1 4-2-1-4-2-6-2-4-25-6-51-6-78 0-87 22-168 61-239 6-9 17-23 22-24-3-6-2-8 0-11 60-91 151-160 257-194 8-3 21-1 28-1 4-4 16-9 26-12 30-6 60-9 92-9 36 0 71 4 105 11 8 2 21 8 26 12 3-2 7-1 14-1 122 36 212 106 268 198 3 4 3 9 3 12 2 1 9 7 10 9 40 73 68 142 68 249-1 4-6 9-6 9z m-584-297c-1-1-2-3-3-5-1 0-1 0-1 0-2-2-3-4-5-6 0 0 0-1 0-1-1-1-3-3-5-5l0 0c0-1 0-1-1-2 0 0 0 0 0 0-1-1-2-2-3-3-1-1-3-2-4-4 0 0-1-1-1-1-2-2-4-4-6-6 0 0 0 0 0 0-3-3-5-5-7-7-2-1-3-3-5-4 0-1-2-2-3-3-1-1-3-3-6-5 0 0 0 0 0 0-2-2-3-3-5-5-1 0-1-1-2-2-1 0-2-1-3-2l0 0c0-1-1-1-2-2-1 0-1-1-2-2-1-1-3-2-5-3 0-1 0-1-1-1l0-1c-1 0-1 0-1-1-2-1-3-2-4-3-1 0-1 0-1 0-1-1-1-1-1-1 0 0-1-1-1-1 0 0-1-1-2-2 0 0 0 0-1 0l0 0c0-1-1-1-1-1-1-1-3-2-4-3-1-1-1-1-1-1-1-1-2-1-2-2-1 0-2-1-2-1-2-1-3-3-4-3-42 15-145 77-161 110-1 5-2 8-3 13 0 0 0 0 0 0 0 1 0 2-1 3 0 1 0 2 0 3 0 1 0 1 0 2 0 2-1 3-1 5v1c-1 1-1 2-1 3 0 2-1 4-1 6 0 0 0 0 0 1 0 2-1 3-1 5 0 1 0 1 0 2-1 5-2 10-2 15-2 17-3 34-3 50v1c0 3 0 7 0 10 0 0 0 1 0 1 0 3 0 6 0 9 0 0 0 1 0 1 0 3 0 5 0 7 0 1 0 2 0 2 0 3 1 5 1 7 0 0 0 1 0 2 0 2 0 3 1 5 0 0 0 1 0 2 0 2 1 4 1 5 2 0 4 0 7-1 2 0 3 0 5-1 1 0 2 0 3 0 2-1 4-1 6-1 1 0 2 0 2 0 3-1 5-1 8-1 0 0 1 0 1 0 3-1 6-1 9-1h0c5-1 10-2 16-2 0 0 0 0 1 0 5 0 10-1 16-1 0 0 0 0 0 0 6 0 11 0 16-1 1 0 2 0 2 0 6 0 11 0 16 0 1 0 2 0 3 0 4 0 8 0 12 0 2 0 3 0 4 0h1c5 0 9 0 14 0h1c1 0 2 0 3 0 3 0 7 0 10 1 2 0 3 0 5 0 4 0 8 0 12 1 3-6 5-12 8-18 0-1 0-1 1-1 1-4 3-7 5-11 1-2 2-5 3-7 1-2 2-4 3-6 3-5 5-9 7-14 1-1 2-2 3-4 3-6 7-11 10-17 0-1 0-1 0-1 9-15 17-29 26-41 0 0 0 0 0-1 2-3 4-7 7-10 0-2 1-3 2-4 1-2 3-4 4-6 7-11 14-21 18-28-2-2-2-4-4-6z m199 347c-3 1-5 1-8 1-1 0-2 0-4 0-2 0-4 1-7 1-2 0-3 0-5 0-3 0-5 0-7 0-1 0-1 0-2 0h-3c-3 1-6 1-8 1-1 0-1 0-2 0 0 0-1 0-1 0-5 0-11 0-16 0h-4c-5 0-11 1-17 1h-1-1c-4 0-9 0-14 0h-6c-2 0-5 0-7 0-5 0-10 0-15 0-2-1-5-1-7-1-4 0-9 0-13 0-2 0-5 0-7 0-5 0-9-1-13-1-1 0-3 0-5 0h0c0 0-1 0-2 0-3 0-5-1-7-1-4 0-7 0-10-1-21 31-57 124-65 175 42 44 116 92 166 105 2-1 5-2 7-3l1 0c1 0 2-1 2-1 1 0 2 0 2-1 1 0 2 0 2-1 1 0 2 0 3-1 1 0 2-1 3-1 1-1 2-1 3-2 0 0 0 0 1 0 13-6 27-14 43-23l0 0c5-3 11-6 17-10 0 0 0 0 1-1 5-3 10-6 15-10 1 0 1-1 1-1 6-3 11-7 16-11l3-2c5-4 9-7 15-11 0 0 0 0 0-1 5-4 10-8 15-12 1-1 2-2 3-3 5-4 9-8 14-12-1-3-1-7-2-10-1-1-1-2-1-2-1-3-1-6-2-9 0-1 0-2 0-2-2-3-2-7-3-10 0-1 0-1 0-2-1-3-2-7-4-10 0-1 0-2 0-2-1-4-2-8-3-12 0 0 0 0 0 0-2-5-3-9-4-13 0 0 0 0 0 0-3-10-6-20-10-30 0 0 0-1 0-1v-1c-1-2-1-3-2-5-1-2-1-4-2-6l0 0c-1-2-1-3-2-5-1-2-1-5-2-6 0 0 0-1 0-1 0-1-1-2-1-3 0-1 0-1 0-1-1-2-2-4-3-6v0c-2-5-3-9-5-14v0c-1-2-1-4-2-6 0 0 0 0 0 0-1-1-1-2-2-2v-1c0-2-1-4-2-5 0 0 0 0 0 0-2-4-3-6-4-9-3 0-7 0-10 1-3 0-7 0-10 0z m283-236c0-1 0-2 0-3 0-2 0-4 0-6 0-1 0-2 0-3 0-2 0-4 0-6v-1c0-5 0-10 0-15 0 0 0-1 0-1 0-2 0-4 0-6 0-1-1-2-1-3 0-2 0-3 0-5 0-1 0-2 0-4 0-1 0-3-1-4 0-1 0-3 0-4s0-3 0-4c0-1-1-3-1-4 0-1 0-2 0-3 0-1 0-2 0-2 0 0 0-1 0-1v0c0 0 0-1-1-1 0 0 0-1 0-1 0-1 0-1 0-2 0-2 0-4-1-7-1-1-3-3-4-5-1-1-1-1-1-1-2-2-3-4-5-6-1 0-1-1-2-1-1-3-4-5-6-7 0 0-1-1-1-1-3-3-6-6-9-9-13-13-30-27-48-41-27-20-58-38-90-47 0 0 0 0 0 0-1 1-2 2-4 3 0 0-1 1-1 1 0 0 0 0-1 1-1 0-1 1-2 1h0c0 1 0 1 0 1-1 1-2 1-3 2l0 0c0 0-1 1-1 1 0 0-1 0-1 0 0 1 0 1 0 1-1 0-1 0-1 0l0 1c0 0-1 0-1 0-1 1-2 2-3 3-1 1-1 1-2 1h0l0 0c-1 1-2 2-3 3l0 0c0 0-1 1-1 1-1 0-2 2-3 3-1 0-2 1-3 2-1 1-3 3-4 4l-2 2c-3 2-5 4-8 7 0 0-1 1-2 1 0 0 0 1-1 1-2 2-4 4-6 6 0 0-1 1-1 1-7 7-14 13-20 20 0 0 0 0 0 0-2 3-4 5-6 7 0 1-1 1-1 1-2 2-3 4-5 6 0 0-1 1-1 2-2 2-3 3-4 4 0 1-1 2-2 3-1 2-2 4-4 6 1 0 2 1 2 2 23 25 51 66 73 103 0 1 1 2 1 3 2 2 3 5 5 7 1 2 2 4 3 5 1 2 2 4 3 6 1 2 2 4 3 6 1 1 2 3 3 5 1 2 2 4 3 6 0 1 2 3 2 4 2 2 3 4 3 6 1 2 2 3 2 3 1 4 3 6 4 9 3 0 6 0 9 0 1 0 2 0 3 0h2c1 0 3 0 5 0h3c3 0 5 0 9 0 0 0 1 0 1 0 3 0 4 0 6 0 1 0 2 0 2 0 1 0 2 0 3 0 15 0 32 0 47-1 10 0 20 0 28 0 6 0 11 0 16 0h1c5 0 10 0 15 0h0c2 0 4 0 6 0 2-9 4-20 5-31 0-1 0-1 0-2 0-2 1-4 1-6 0-1 0-2 0-3 0-2 0-4 0-6 0-1 0-2 0-2-1-2-1-4-1-6z" horiz-adv-x="1000" />

<glyph glyph-name="bug" unicode="&#xe833;" d="M533-84c8-19 18-38 32-55-19-5-40-7-61-7-21 0-41 2-61 7 15 17 24 36 32 55 15 34 23 67 29 101 6-34 15-67 29-101z m-223 731c11 1 20 11 19 22-1 11-11 19-22 19-41-4-58 27-59 28-15 30-4 66 26 82 30 15 67 4 82-26l62-124c-71-25-119-81-120-146 38-20 114-55 206-55 92 0 168 34 206 55 0 66-51 122-123 147l62 123c15 30 52 41 82 26 29-16 41-52 25-82 0-1-18-32-58-28-11 0-21-8-22-19-1-11 7-21 19-22 67-5 96 48 97 50 26 50 7 111-43 137-49 25-110 6-136-43l-65-132c-14 3-29 4-44 4-16 0-32-1-47-4l-65 132c-26 49-87 68-137 43-49-26-68-87-43-137 1-2 30-55 98-50z m608-440c-4-13-17-22-30-22-4 0-7 0-10 2-1 0-27 8-64 11-2-45-11-89-26-128 56-32 90-81 92-84 9-15 5-35-9-44-6-4-12-6-18-6-10 0-20 6-26 15 0 0-26 37-66 61-31-52-73-94-122-122-9 1-17 4-26 12-10 10-19 24-27 40-16 32-27 70-35 108-17 76-26 156-30 236v0c0 1 0 2 0 3-2 7-8 14-16 14-10 1-18-7-18-17v0c-4-80-13-160-30-236-9-38-19-76-35-108-8-16-17-30-27-40-10-8-18-12-26-12-49 28-91 70-122 122-40-24-65-61-66-61-6-9-16-14-26-14-6 0-13 1-18 5-14 10-18 29-9 44 2 3 36 52 92 84-15 39-24 82-26 128-38-3-65-12-66-12-17-6-36 3-41 21-6 17 3 35 20 41 3 1 39 13 90 16-1-5-1-9-1-13 3 44 14 85 31 123-60 31-97 84-99 87-10 15-5 35 9 45 15 9 34 5 44-9 1-1 30-44 76-67 9 13 18 26 28 37 42-22 122-56 219-56 97 0 177 34 219 56 10-11 19-24 28-37 47 24 77 68 78 69 10 15 30 19 45 9 15-10 19-31 9-46-2-3-39-58-101-90 15-33 25-70 29-109 50-3 84-15 87-16 17-5 26-23 20-40z m-724 7c0 2 0 5 0 8 0-3 0-6 0-8z m1 29c0 2 0 4 0 6 0-2 0-4 0-6z m-1-10c1 3 1 5 1 7 0-2 0-4-1-7z m0-9c0 2 0 4 0 6 0-2 0-4 0-6z m161 120c-34 9-71-25-84-74-12-50 4-97 37-106 33-8 71 25 83 75 13 50-3 97-36 105z m345-180c33 9 50 56 37 106-13 49-50 83-83 74-34-8-50-55-37-105 12-50 50-83 83-75z m114 50c0 2 0 5 0 7 0-2 0-5 0-7z m0 11c0 1 0 2 0 3 0-1 0-2 0-3z" horiz-adv-x="1000" />

<glyph glyph-name="calendar" unicode="&#xe834;" d="M943 719h-123v29c0 24-19 43-43 43-24 0-43-19-43-43v-29h-464v29c0 24-19 43-43 43-24 0-44-19-44-43v-29h-127c-24 0-43-19-43-43v-706c0-24 19-43 43-43h887c24 0 43 19 43 43v706c0 24-19 43-43 43z m-43-705h-801v407h801v-407z m0 450h-801v169h84v-29c0-24 20-43 44-43 24 0 43 19 43 43v29h464v-29c0-24 19-43 43-43 24 0 43 19 43 43v29h80v-169z m-642-215h-84v84h84v-84z m145 0h-84v84h84v-84z m145 0h-83v84h83v-84z m145 0h-83v84h83v-84z m145 0h-83v84h83v-84z m-580-134h-84v84h84v-84z m145 0h-84v84h84v-84z m145 0h-83v84h83v-84z m145 0h-83v84h83v-84z m145 0h-83v84h83v-84z" horiz-adv-x="1000" />

<glyph glyph-name="world" unicode="&#xe835;" d="M500 766c-229 0-416-187-416-416 0-229 187-416 416-416 229 0 416 187 416 416 0 229-187 416-416 416m0-916c-276 0-500 224-500 500 0 276 224 500 500 500 276 0 500-224 500-500 0-276-224-500-500-500m0 937c-134 0-244-196-244-437 0-241 110-437 244-437 134 0 244 196 244 437 0 241-110 437-244 437m0-916c-158 0-286 215-286 479 0 264 128 479 286 479 158 0 286-215 286-479 0-264-128-479-286-479m21 915v-872c231 11 416 202 416 436 0 234-185 425-416 436m-21-915c-12 0-21 9-21 21v916c0 12 9 21 21 21 264 0 479-215 479-479 0-264-215-479-479-479m-413 339h826c16 45 24 93 24 140 0 47-8 95-24 140h-826c-16-45-24-93-24-140 0-47 8-94 24-140m841-42h-856c-9 0-17 5-20 13-20 55-31 112-31 169 0 57 11 114 31 169 3 8 11 14 20 14h856c9 0 17-6 20-14 21-55 31-112 31-169 0-57-10-114-31-169-3-8-11-13-20-13" horiz-adv-x="1000" />

<glyph glyph-name="girl" unicode="&#xe836;" d="M349 149c24 0 42 19 42 42v78c0 24-18 43-42 43-23 0-42-19-42-43v-78c0-23 19-42 42-42z m-18 120c0 11 8 19 18 19 11 0 19-8 19-19v-78c0-10-8-19-19-19-10 0-18 9-18 19v78z m224-120c23 0 42 19 42 42v78c0 24-19 43-42 43-23 0-42-19-42-43v-78c0-23 18-42 42-42z m-19 120c0 11 8 19 19 19 10 0 18-8 18-19v-78c0-10-8-19-18-19-11 0-19 9-19 19v78z m-73-205c129 0 235 68 236 69 6 3 13 2 17-4 3-5 2-12-4-16-4-3-113-72-249-72-135 0-244 69-248 72-6 4-7 11-4 16 4 6 11 7 16 4 1-1 108-69 236-69z m508 673c-35 130-312 95-324 94-6-1-10-6-10-12 0-6 4-11 10-12 64-6 161-29 165-57 1-6-3-29-93-67-33-14-52-33-57-57-3-19 3-38 11-51-22-2-44-13-59-30-49 25-104 39-162 39-151 0-286-94-339-234-54-4-97-49-97-104 0-50 35-92 81-103 37-166 184-285 355-285 171 0 319 119 355 285 46 11 81 53 81 102 0 55-43 101-97 105-11 29-25 56-43 81 13 15 21 36 21 56 0 15-4 28-10 40 55 20 244 96 212 210z m-290-185c35 0 64-29 64-65 0-13-4-26-12-37-27 33-60 62-97 84 12 11 28 18 45 18z m104-263c1-6 7-10 13-9 7 2 11 8 10 14-3 11-5 21-8 31 37-8 64-40 64-79 0-45-36-82-81-82-7 0-12-5-12-12 0-6 5-11 11-11-37-151-173-260-330-260-157 0-293 109-330 260 6 0 11 5 11 12 0 6-5 11-12 11-45 0-81 37-81 82 0 39 28 72 64 79-3-12-6-24-9-37-1-6 3-13 10-14 0 0 1 0 2 0 5 0 10 4 11 10 2 10 5 19 7 29 23-9 47-13 71-13 116 0 235 92 267 118 48-46 134-113 231-113 27 0 55 5 82 17 3-10 6-21 9-33z m-17 55c-162-73-324 128-325 130-4 5-12 6-17 2-5-4-6-12-2-17 1 0 8-10 22-24-39-32-194-148-314-100 48 135 177 225 320 225 141 0 266-88 316-216z m-23 203c-11 12-25 21-41 25-6 7-23 29-19 49 3 16 18 29 43 40 78 33 112 62 107 93-4 28-44 47-87 59 80-1 183-16 201-82 27-98-164-170-204-184z" horiz-adv-x="1000" />

<glyph glyph-name="ground" unicode="&#xe837;" d="M22 670c9-10 72-48 114-73 28-16 38-17 40-17 1 0 4 2 7 5l161-188 70 60-161 188c3 3 5 5 5 6 1 2 1 13-11 43-19 45-46 112-55 123-1 1-2 3-3 4-10 9-57 45-132-20-76-65-46-118-39-127 1-1 2-2 4-4z m65 96c33 29 56 31 68 23 9-15 37-83 49-113 2-3 3-6 4-9l-40-35c-2 2-5 3-8 5-28 16-92 55-105 65-6 13-1 36 32 64z m367-356l41-46 104 90c13 11 33 10 44-3l121-140c11-13 9-32-4-43-12-11-32-10-43 3l-100 117-47-41 100-116c12-13 10-33-3-44-2-2-5-4-8-5-13 5-26 10-39 13l-97 112-46-40 51-59c-26-1-50-3-74-9l-24 27-46-40 6-8c-19-8-37-19-54-31l-19 22c-11 13-10 32 3 44l105 90-40 47 69 60z m538-515c0 85-75 154-166 154-23 0-45-4-65-12-41 73-129 124-232 124-99 0-184-47-227-116-14 3-28 4-42 4-119 0-247-87-254-196h986v26h-1c1 6 1 11 1 16z m-493 20c-34 0-61 28-61 62 0 34 27 61 61 61 34 0 62-27 62-61 0-34-28-62-62-62z m92 123c-17 0-30 14-30 31 0 17 13 31 30 31 18 0 31-14 31-31 0-17-13-31-31-31z m62-123c-17 0-31 14-31 31 0 17 14 31 31 31 17 0 31-14 31-31 0-17-14-31-31-31z" horiz-adv-x="1000" />

<glyph glyph-name="ice-cream" unicode="&#xe838;" d="M337 693c9 84 80 149 166 149 86 0 157-65 166-149-68 0-129-35-166-87-37 53-97 87-166 87z m491-204c0-93-74-167-167-167-73 0-135 47-158 112-22-65-84-112-157-112-93 0-168 74-168 167 0 92 75 167 168 167 73 0 135-47 157-112 23 65 85 112 158 112 93 0 167-75 167-167z m-512 100c-3 5-10 8-16 4-3-1-78-44-75-124 0-7 5-12 12-12 6 1 11 6 11 12-3 66 63 103 64 104 5 3 7 10 4 16z m316 0c-3 5-10 8-16 4-3-1-79-44-76-124 0-7 6-12 12-12 7 1 12 6 12 12-3 66 63 103 64 104 5 3 7 10 4 16z m-5-387l34 87h-125l91-87z m-130-343l27 71-81 71 54-142z m-77 202l115-101 32 84-221 211 74-194z m-66 228l225-214 37 96-125 118h-137z" horiz-adv-x="1000" />

<glyph glyph-name="island" unicode="&#xe839;" d="M990-99c-1 0-2-1-3 0h0c-7 5-15 9-23 13-9 3-17 6-26 8-18 5-35 8-54 9-35 3-72 1-108-4-35-5-71-13-105-22-18-5-35-10-53-16-17-6-36-11-54-16-18-4-36-8-55-11-18-3-37-6-56-7-38-3-76-1-113 6-38 8-74 20-108 36-17 8-34 18-49 29-16 10-31 22-43 36-1 1-1 2 0 3 1 0 2 1 2 0h0c64-36 133-56 204-65 34-5 70-7 106-7 35 0 71 4 106 11 17 3 35 7 52 12 18 5 36 10 54 14 37 8 73 13 110 16 37 3 75 3 112-3 18-3 37-7 54-13 9-3 17-7 26-11 8-4 16-9 24-15 0-1 0-2 0-3z m-454 38c123 14 244 70 369 46 24-5 45-13 67-22 29-12 2 16-6 24-43 40-83 77-134 107-52 30-108 52-167 67-10 2-36 5-25 22 2 3 4 8 5 12 19 52 41 129 50 183 9 61 16 171 16 171 10 2 17 2 18-9 0-3 8-17 7-18 1 1 7-3 8-4 0-3-1-6 0-9 0-10 0-16 10-14 7 1 7-11 7-15 0-9 11-9 12-14 1-3 4-40 10-31 15 20 6 59-2 80-6 19-17 31-27 48-9 14 7 27 18 13 5-6 12-4 19-8 3-2 7-11 11-11 0-8 22 2 28-6 11-11 15-13 29-15 3 0 5-7 8-9 7-6 10 3 16 0 2 0 24-16 24-9-1 9-14 20-20 27-27 29-53 63-96 67-5 1-44-2-45 3-3 12 8 14 17 15 3 1 10 1 12 4 3 4 2 12 8 13 3 1 27 17 27 15-2 6 31 19 4 20-18 1-43 0-60-5-18-5-32-18-39-36-9-23-14-4-18 9-6 18-29 27-46 30-12 3-54 11-64 0 9-8 15-14 25-21 8-4 20-8 25-15 8-14 31-12 36-30-31-2-69 1-96-19-16-11-30-24-44-37-4-5-32-30-26-39 9-13 65 26 73 31 11 8 26 4 37 13 9 7 20 19 33 19 18 0 9-20 3-28-11-13-19-30-25-46-6-16-9-34-6-51 3-11 10-26 15-8 6 20 9 33 25 47 15 13 11 34 29 46-13-94-11-141-42-232-26-77-87-159-179-132-44 13-72 51-96 89-26 41-44 88-54 136-22 99-20 154-20 254 1-6 3-11 4-17 0-9 3-5 9-9 7-5 7-27 6-34 13-1 18 7 19-11 1-9 2-15 11-18 8-3 8-12 8-19 0-12 3-23 6-35 21 14 11 72 7 92-3 17-9 33-17 47-10 17-24 30-33 47 7 2 12 10 19 11 9 1 12-11 17-16 7-6 14 3 22-1 6-3 9-12 12-17 4-5 9-10 15-7 5 2 2 9 11 6 5-1 9-4 14-7 2-3 27-27 26-16 12-1 15-18 28-16 17 2 21-5 35-14 13-8 14 3 7 12-8 9-18 16-25 25-22 28-49 56-80 72-36 20-76 16-116 16 4 8 14 13 19 21 6 8 18 2 26 4 14 4-2 24 16 23 8 0 16-1 17 9 0 7 10 6 15 7 7 0 7 6 8 10 2 5 13 5 17 11 2 4-41 4-43 4-17-1-37 0-53-6-30-11-43-33-54-61-6-15-10-2-14 8-6 18-15 32-32 42-28 17-69 16-101 15-14 0-15-8-2-12 10-4 6-15 18-15 11 0 11-9 19-14 10-8 16 3 18-13 1-12 23-15 33-13-1-1 14-18 14-19-41 0-81 2-117-21-29-18-51-46-76-71-8-8-17-20-23-30-9-13 8-4 10-2 8 5 15 10 24 14 11 6 7-8 18-2 6 3 11 19 19 14 6-4 24 4 24 12 5 0 11 14 14 15 3 0 21-8 21-8 0 4 14 14 16 17 3 3 5 10 10 9 9 0 3-9 13-2 6 4 13 21 22 17 5-1 1-6 5-8 4-2 9 0 12-1 0-7-6-10-9-14-5-6-6-14-11-20-11-14-20-28-25-45-6-19-8-39-9-58 0-15-4-32 7-43 10-11 8 8 8 14 0 10 2 20 7 29 3 4 8 2 12 8 3 4 4 10 4 16 1 16 5 8 18 8-1 7-1 29 6 34 11 8 10 11 12 25 0 10 4 15 14 11 10-4 12 8 11-10-7-155 0-277 67-420 5-11 11-22 17-33 20-37-10-38-38-45-53-15-103-39-145-77-15-14-34-34-32-57 2-18 27-23 41-30 114-52 239-70 363-56z" horiz-adv-x="1000" />

<glyph glyph-name="cookie" unicode="&#xe83a;" d="M823 384c51 16 81 71 64 123-16 52-71 81-123 65l-134-42c32 33 51 77 51 126 0 100-81 181-181 181-100 0-181-81-181-181 0-49 19-93 51-126l-134 42c-52 16-107-13-123-65-17-52 12-107 64-123 0 0 131-46 148-126 35-115-131-207-131-207-45-31-61-97-30-142 31-45 96-61 141-30 0 0 136 113 195 113 59 0 195-113 195-113 45-31 111-15 141 30 31 45 15 111-30 142 0 0-163 96-131 207 11 80 148 126 148 126z m-417 254c-17 0-31 14-31 32 0 18 14 32 31 32 18 0 32-14 32-32 0-18-14-32-32-32z m94-509c-27 0-49 23-49 50 0 27 22 49 49 49 27 0 50-22 50-49 0-27-22-50-50-50z m0 160c-27 0-49 22-49 50 0 27 22 49 49 49 27 0 50-22 50-49 0-28-22-50-50-50z m0 245c-30 0-55 25-55 55h110c0-30-25-55-55-55z m94 104c-18 0-32 14-32 32 0 18 14 32 32 32 17 0 32-14 32-32 0-18-15-32-32-32z" horiz-adv-x="1000" />

<glyph glyph-name="notifi" unicode="&#xe83b;" d="M617 353c-37 65-109 88-109 88-81 30-176 7-235-64-64-78-148-143-173-134-17 7-37 0-46-16-9-15-5-36 9-47l191-158 192-159c14-11 35-11 49 1 14 12 17 32 7 48-14 22 33 118 98 196 36 44 52 98 47 155-4 32-14 63-30 90z m-166 6c-41 3-85-14-112-45-19-21-56 4-37 26 38 43 95 67 153 63 28-1 25-46-4-44z m-198-390l66-54c-2-9-5-17-11-24-17-21-48-24-70-7-21 18-24 49-7 70 6 7 14 12 22 15z m706 838c-4-26-12-49-22-71-9-22-20-42-32-61-13-19-27-37-43-52-17-16-35-30-52-45-33-30-77-51-109-82-17-15-33-31-47-48-9-10-18-21-27-32-23 25-48 42-68 53 12 11 23 22 34 34 16 16 30 33 44 51 28 35 45 81 72 117 13 18 26 37 39 55 15 18 30 33 48 47 18 15 37 27 58 39 21 11 44 21 70 28 15 4 31-6 35-21 1-4 1-8 0-12z" horiz-adv-x="1000" />

<glyph glyph-name="paints" unicode="&#xe83c;" d="M291 309l-272 426c-9 12-12 27-8 42 3 16 12 30 26 40l8 6c0 0 0 0 0 0 14 10 30 14 46 13 15-2 29-10 38-22l315-394c1 0 1-1 1-1 25-35 14-85-24-113l-15-11c-38-27-89-22-114 13-1 1-1 1-1 1z m281-35c-5 2-10 3-15 5-36 8-77 1-111-23-58-42-75-120-37-172 51-70 199-88 206-88 6-1 11 1 16 4 4 3 8 8 9 14 0 0 1 4 2 10-7 17-10 33-10 47-1 5-1 10 0 15 15 74 18 162-60 188z m117-394c-212-65-459 5-552 158-72 117-25 270-25 270 12 41 33 65 55 80l72-111c1-2 2-4 2-5 24-32 60-52 100-55-22-56-17-119 19-169 63-89 218-110 248-114 3 0 6 0 9 0 18 0 35 5 49 16 18 12 29 30 34 51 0 2 1 7 2 13 2 11 1 22-3 33-4 9-6 18-6 27 0 2 0 3 0 5 10 52 11 95 4 131-12 60-49 103-105 122-6 2-14 4-21 6-14 4-29 5-44 5-4 0-8 0-11 0 9 38 3 79-21 112 0 0 0 0 0 0-1 1-2 2-3 4l-96 120c-17 108 70 218 233 192 147-23 289-98 346-318 58-227-75-507-286-573z m57 680c0 51-42 92-92 92-51 0-92-41-92-92 0-51 41-92 92-92 50 0 92 41 92 92z m183-246c0 51-40 92-91 92-51 0-92-41-92-92 0-51 41-92 92-92 51 0 91 41 91 92z" horiz-adv-x="1000" />

<glyph glyph-name="phonemobile" unicode="&#xe83d;" d="M83-67h500v834h-500z m542-83h-583c-23 0-42 19-42 42v916c0 23 19 42 42 42h583c23 0 42-19 42-42v-916c0-23-19-42-42-42m-479 313h375v486h-375z m396-42h-417c-11 0-21 9-21 21v527c0 12 10 21 21 21h417c11 0 21-9 21-21v-527c0-12-10-21-21-21m-159-93c0-27-22-50-50-50-27 0-49 23-49 50 0 27 22 49 49 49 28 0 50-22 50-49" horiz-adv-x="667" />

<glyph glyph-name="bag" unicode="&#xe83e;" d="M213 454c-19 0-43-21-49-51l-77-431c-2-9 0-17 5-22 7-9 20-14 35-14l747 0c16 0 28 5 35 14 5 5 7 13 5 22l-77 432c-6 29-30 50-48 50l-576 0z m661-604l-747 0c-41 0-78 16-101 44-22 26-30 59-24 93l78 432c12 68 71 122 133 122l575 0c62 0 121-54 134-122l77-432c6-34-2-67-23-93-24-28-61-44-102-44m-215 471c-24 0-43 20-43 43l0 281c0 65-54 119-119 119-66 0-119-54-119-119l0-281c0-23-19-43-43-43-24 0-43 20-43 43l0 281c0 113 92 205 205 205 113 0 205-92 205-205l0-281c0-23-19-43-43-43" horiz-adv-x="1001" />

<glyph glyph-name="close" unicode="&#xe83f;" d="M42-150c-11 0-21 4-30 12-16 17-16 43 0 60l916 916c17 16 43 16 60 0 16-17 16-43 0-60l-916-916c-9-8-19-12-30-12m916 0c-11 0-21 4-30 12l-916 916c-16 17-16 43 0 60 17 16 43 16 60 0l916-916c16-17 16-43 0-60-8-8-19-12-30-12" horiz-adv-x="1000" />

<glyph glyph-name="comment" unicode="&#xe840;" d="M930-7c-21 7-39 17-54 30 82 67 125 165 110 259-14 89-77 165-168 202-7 3-15 3-22 2-35 148-196 261-390 261-219 0-397-145-397-322 0-111 72-214 188-272-18-22-41-40-68-53-16-8-24-25-21-42 3-17 18-30 35-31 10-1 20-1 29-1 76 0 145 21 198 60 60-107 198-165 338-139 3 0 5 1 8 1 39-26 86-39 136-39 25 0 50 3 76 10 17 4 28 19 29 36 0 17-11 33-27 38z m-524 188c-8 0-17 1-26 1-11 1-22-3-30-11-22-23-50-41-82-52 4 5 7 11 11 17 2 4 5 9 7 13l2 4c4 10 5 21 1 31-4 10-12 18-23 22-109 41-180 127-180 219 0 135 144 244 320 244 177 0 320-109 320-244s-143-244-320-244z m393-118c-9-6-14-16-16-26-2-11 1-23 6-31 3-4 5-8 8-11 0-1 0-1 0-1-18 6-35 15-49 26-9 8-22 10-33 7-7-1-13-3-20-4-100-18-197 16-246 83 191 17 342 143 354 300 59-28 98-77 107-136 12-77-32-158-111-207z" horiz-adv-x="1000" />

<glyph glyph-name="like" unicode="&#xe841;" d="M990 421c-2 166-129 301-283 301l-5 0c-80-1-154-35-207-95-53 57-127 90-208 90h0c-72 0-140-29-193-82-57-59-89-141-88-226 0-32 5-63 14-89 18-79 112-182 296-325 47-37 120-87 151-108l12-9c2-2 4-3 6-4 6-3 13-5 20-5 8 0 15 2 22 6 41 26 97 68 165 124 177 145 270 254 285 329 9 30 13 61 13 93z m-93-73c-7-33-49-113-258-284-53-44-98-79-134-103-33 23-96 68-138 100-214 167-258 245-267 281-7 22-10 44-11 68 0 63 23 124 65 166 36 37 84 58 136 58 70 0 133-37 171-98 7-13 22-21 36-21 15 1 28 9 36 22 36 63 99 101 170 102 0 0 4 0 4 0 109 0 198-98 200-219 0-23-3-46-10-72z m-53 72c1-18-2-34-7-51l-2-8c-2-10-10-17-20-17-1 0-3 0-4 0-12 3-19 14-17 25l3 12c4 12 6 25 6 38-1 65-44 116-99 116-11 0-21 9-21 21 0 11 10 20 21 20 78 1 139-68 140-156z" horiz-adv-x="1000" />

<glyph glyph-name="menu" unicode="&#xe842;" d="M1733 690l-1653 0c-44 0-80 36-80 80 0 44 36 80 80 80l1653 0c45 0 80-36 80-80 0-44-35-80-80-80m0-420l-1653 0c-44 0-80 36-80 80 0 44 36 80 80 80l1653 0c45 0 80-36 80-80 0-44-35-80-80-80m0-420l-1653 0c-44 0-80 36-80 80 0 44 36 80 80 80l1653 0c45 0 80-36 80-80 0-44-35-80-80-80" horiz-adv-x="1813" />

<glyph glyph-name="search" unicode="&#xe843;" d="M429 764c-189 0-343-154-343-343 0-189 154-343 343-343 189 0 343 154 343 343 0 189-154 343-343 343m0-772c-236 0-429 192-429 429 0 236 193 429 429 429 237 0 429-192 429-429 0-237-192-429-429-429m-241 429l-43 0c0 157 127 284 284 284l0-43c-133 0-241-108-241-241m752-571c-11 0-22 4-30 13l-240 239c-17 17-17 44 0 61 17 17 44 17 61 0l240-240c17-16 17-44 0-60-9-9-20-13-31-13" horiz-adv-x="983" />

<glyph glyph-name="music" unicode="&#xe844;" d="M774 165c-2 3-2 5-4 8 0 0-1 0-1 1 0 1-2 1-2 2-12 16-28 28-46 36-72 61-204 202-288 296-7 39-40 64-64 81-9 7-21 15-24 20l-46 66c-25 90-125 114-130 115-4 0-8 1-12 0-5 0-47-5-78-27-33-23-51-61-53-65-1-3-3-7-3-11-1-4-13-107 63-161l46-66c4-4 7-19 10-29 8-29 19-71 56-90 60-112 146-282 179-370 1-21 7-40 17-56 1-1 1-1 1-1 1-1 1-2 2-3 1-2 3-4 5-6 0 0 1-1 2-1 23-28 59-44 104-44 52 0 111 21 163 57 100 70 144 177 104 247-1 0-1 1-1 1z m-508 332c-45-12-72 13-72 13l-39 55c12 11 25 22 40 33 16 10 31 19 45 26l39-55c0 0 14-34-13-72z m87-125c-16-11-37-7-47 8-11 16-7 37 8 47 15 11 36 7 47-8 10-15 7-36-8-47z m77-110c-15-11-36-7-47 8-11 15-7 36 8 47 15 11 37 7 47-8 11-16 7-37-8-47z m38-56c15 11 37 7 47-8 11-15 7-36-8-47-15-11-36-7-47 8-10 15-7 37 8 47z m159-226c-39-27-83-43-119-43-12 0-32 3-44 15-1 1-3 2-4 3-5 7-6 17-5 28 0 10 3 21 8 32 14 31 42 63 78 88 39 27 82 43 118 43 6 0 15-1 23-3 10-2 19-6 25-15 1-1 1-3 2-5 15-31-15-95-82-143z m333 696c0 0 0 0 0 0 0 0 0 0 0 0z m0 0c0 0 0 0 0-1 0 0 0 1 0 1z m1-1c0 0 0 0 0 0 0 0 0 0 0 0z m-1 0c0 0 1 0 1 0 0 0-1 0-1 0z m0 0c0 0 0 0 0 0 0 0 0 0 0 0z m0 1c0 0 0 0 0 0 0 0 0 0 0 0z m-3-71c-21-19-53-18-72 3l-49 53v-241c0-40-21-78-54-100-33-20-74-24-109-9-35 15-61 45-70 81-8 38 2 78 27 106 26 30 66 44 105 39v254c0 21 13 40 32 47 19 8 42 3 56-13l137-149c19-20 17-53-3-71z m11 62c0 0 0 0 0 0l0 0z m-1 1c0 0 0 0 0 0 0 0 0 0 0 0z m1-1c0 0 0 0 0 0 0 0 0 0 0 0z m-1 1c1 0 1-1 1-1 0 0 0 1-1 1z m-2 2c0 0 1 0 1 0 0 0-1 0-1 0z m1-1c0 0 0 1 0 1 0 0 0-1 0-1z m-1 1c0 0 0 1 0 1 0 0 0-1 0-1z m2-2c0 0-1 1-1 1 0 0 1-1 1-1z m0 0c0 0 0 0 0 0 0 0 0 0 0 0z m-6 6c0 0 0 0 0 0 0 0 0 0 0 0z m0 0c0 1 0 1 0 1 0 0 0 0 0-1z m1 0c0 0 0 0-1 0 1 0 1 0 1 0z m0 0c0 0 0 0 0 0 0 0 0 0 0 0z m2-3c1 0 1 0 1 0 0 0 0 0-1 0z m-2 3c1-1 2-2 2-3 0 1-1 2-2 3z" horiz-adv-x="1000" />

<glyph glyph-name="mark" unicode="&#xe845;" d="M500 839c-228 0-414-185-414-413 0-219 348-522 388-556 7-6 17-9 26-9 9 0 19 3 26 9 40 34 388 337 388 556 0 228-186 413-414 413z m0-884c-113 101-333 329-333 471 0 183 150 333 333 333 184 0 333-150 333-333 0-142-220-370-333-471z m0 672c-111 0-202-90-202-201 0-112 91-202 202-202 111 0 202 90 202 202 0 111-91 201-202 201z m0-322c-67 0-121 54-121 121s54 121 121 121 121-55 121-121-54-121-121-121z" horiz-adv-x="1000" />

<glyph glyph-name="heart" unicode="&#xe846;" d="M991 348c-2 4-6 8-11 9l-164 16-66 151c-3 5-7 8-12 8-6 0-10-3-12-8l-67-151-164-16c-5-1-9-4-11-9-1-5 0-11 4-14l123-110-11-50c-84-93-164-155-189-174-54 42-374 302-374 527 0 40 11 171 154 171 154 0 206-111 208-115 2-5 6-7 11-8 4-1 9 1 12 5 0 1 91 118 209 118 143 0 155-131 155-171 0-7 6-13 13-13 7 0 13 6 13 13 0 96-48 198-181 198-105 0-187-80-218-114-22 36-87 114-221 114-134 0-181-102-181-198 0-257 376-541 392-553 3-2 6-3 8-3 3 0 5 1 8 2 3 3 80 57 170 151l-13-61c-1-5 1-10 5-13 2-2 5-3 8-3 2 0 4 1 6 2l143 83 142-83c5-3 10-2 14 1 5 3 7 8 5 13l-34 161 122 110c4 3 6 9 4 14z m-150-110c-3-3-5-8-4-12l30-140-123 72c-2 1-4 2-6 2-3 0-5-1-7-2l-123-72 17 79c0 0 0 0 0 0l13 61c1 4-1 9-4 12l-107 95 142 15c5 0 9 3 11 8l57 130 58-130c2-5 6-8 11-8l142-15-107-95z" horiz-adv-x="1000" />

<glyph glyph-name="home" unicode="&#xe847;" d="M965 304c0 0 0 0 0 0 0 0-1 2-3 5 42 40 40 83-4 131-28 30-72 64-130 11 0 0 0 0 0 0 0 0 0 0 0 0-1 0-1 0-1 1 0 0 0 0 0 0-1 0-1 0-1 0 0 0 0 0 0 0 0 0-1 0-1 0 0 1 0 1 0 1-1 0-1 0-1 0-1 0-3 0-4 0 0 0 0 0 0 0 0 0-1 0-1 0 0 0 0 0-1 0 0 0 0 0 0 0 0 0-1 0-1 0 0 0 0 0 0 0 0 0-1 0-1-1 0 0 0 0 0 0 0 0-1 0-1 0 0 0 0 0 0 0-1 0-1 0-1-1 0 0 0 0 0 0-1 0-1 0-1 0 0 0 0-1 0-1 0 0 0 0 0 0l-53-49c-1 0-1 0-1 0l-158-148c-36-1-69-1-101-2-4 65-17 270-17 273 0 5-4 10-10 11-112 12-290-36-297-38-4-1-7-4-8-7-1-4-1-8 1-11 36-56 42-217 43-258-181-38-201-95-203-104-1-7 3-13 9-14 1-1 2-1 3-1 5 0 10 4 12 10 0 0 18 52 193 87 0 0 1 0 1 0 80 16 191 28 348 30l-58-55c0 0 0 0 0 0l-71-65c0-1-1-2-1-3-1 0-33-49-61-101-54-100-48-127-36-139 5-6 12-10 27-10 20 0 54 9 114 36 54 24 105 53 106 53 0 1 1 1 2 2l38 35c1 2 2 3 3 4 1 1 2 1 3 3l322 300c0 0 0 0 0 0 0 0 0 0 0 0 1 0 1 1 1 1 0 0 0 0 0 0 0 0 0 1 1 1 0 0 0 0 0 0 0 0 0 0 0 1 0 0 0 0 0 0 1 1 1 2 1 3 0 0 0 0 1 0 0 0 0 1 0 1 0 0 0 1 0 1 0 0 0 0 0 0 0 2-1 5-2 7 0 0 0 0 0 0z m-729-79c-1 46-7 185-39 253 43 10 174 40 263 34 3-43 13-205 17-262-101-5-179-14-241-25z m129-343c0 0-8 10 17 66 1-1 2-1 3-2 0 0 18-7 31-21 11-12 17-27 18-31-59-21-69-12-69-12z m114 31c-8-4-16-7-23-10-2 7-9 24-22 38-17 18-39 27-40 27-1 0-1 1-2 1 4 7 8 15 13 24 19 37 41 72 52 89 5-3 38-27 67-58 24-26 42-53 48-64-17-10-54-29-93-47z m146 93c-1-1-2-2-2-4-2 0-3-1-4-2l-28-26c-7 13-25 40-50 66-29 31-60 54-69 60l51 48c0 0 0 0 0 0l245 228c14-10 41-33 65-58 24-25 44-54 53-68l-261-244z m279 260c-11 15-30 43-54 68-23 25-50 47-64 59l35 33c14-10 41-33 65-58 24-26 44-55 54-69l-36-33z m-1 118c-19 21-41 40-56 52 33 28 59 25 93-12 35-37 38-66 8-96-11 16-27 37-45 56z m-72-112c4-5 4-12-1-17l-234-218c-2-2-5-3-8-3-3 0-6 1-9 4-4 4-4 12 1 16l234 219c5 4 12 4 17-1z m-49 35l-234-218c-2-2-5-3-8-3-3 0-6 1-9 4-4 4-4 12 1 16l234 219c5 4 12 4 17-1 4-5 4-12-1-17z m-676 148c3 0 6 1 8 3 2 2 143 147 211 215 31-22 143-104 190-173 3-5 11-7 16-3 5 4 7 11 3 17-18 26-45 55-73 81l21 84c2 6-2 12-8 14l-49 15c-4 1-7 1-10-1-3-2-5-5-6-8l-9-52c-38 29-67 50-70 52-5 3-11 2-15-2-65-64-216-221-218-222-4-5-4-12 1-17 2-2 5-3 8-3z m324 227l26-8-15-61c-7 6-14 11-20 17l9 52z m-71-221c-33 0-79-8-81-8-3 0-6-2-8-5-2-3-3-6-2-9 9-39 22-97 22-106 0-1 0-16 19-16 12 0 31 6 50 11 11 3 25 7 29 7 5 0 10 2 13 7 16 19-1 101-1 102-3 15-23 17-41 17z m25-103c-7 0-17-3-32-7-13-4-30-9-39-10-3 21-13 67-19 91 16 2 44 6 65 6 11 0 16-2 18-2 5-25 10-65 7-78z m60 377c-1 4-8 48 17 67 17 12 43 9 76-9 8-4 16-9 23-12 72-40 78-43 108-23 6 4 13 3 17-3 3-5 2-13-4-16-16-11-29-17-42-17-22 0-46 13-91 38-7 4-14 8-23 12-23 13-41 17-50 10-11-8-9-34-8-43 2-7-3-13-9-14-7-1-13 3-14 10z" horiz-adv-x="1000" />

<glyph glyph-name="pers" unicode="&#xe848;" d="M377 764c-67 0-121-66-121-146 0-81 54-146 121-146 67 0 121 65 121 146 0 80-54 146-121 146m0-379c-114 0-207 104-207 233 0 128 93 232 207 232 114 0 207-104 207-232 0-129-93-233-207-233m-279-449h551l11 164c3 34-28 87-71 102-138 50-293 50-432 0-41-15-73-68-70-102z m592-86h-633c-22 0-41 18-43 40l-14 204c-5 75 54 162 128 189 158 57 333 57 491 0 75-27 133-114 128-189l-14-204c-2-22-21-40-43-40" horiz-adv-x="747" />

<glyph glyph-name="clock" unicode="&#xe849;" d="M541 651v-301c0-13-6-24-15-32-1-1-1-2-2-3l-121-121c-9-8-19-12-30-12-11 0-21 4-30 12-16 16-16 43 0 59l115 114v284c0 23 18 42 41 42 24 0 42-19 42-42z m446-301c0 0 0 0 0 0 0-269-219-488-488-488-269 0-487 219-487 488 0 0 0 0 0 0l0 0c0 0 0 0 0 0 0 269 218 487 487 487 269 0 488-218 488-487 0 0 0 0 0 0l0 0z m-85-39c-15 7-26 22-26 39 0 17 11 32 26 38-5 52-20 101-43 145l-20-11c-3-2-7-3-10-3-7 0-14 4-18 10-6 10-3 23 7 29l20 11c-31 48-72 89-119 119l-11-19c-4-7-11-11-19-11-3 0-7 1-10 3-10 6-13 18-8 29l12 19c-45 23-93 38-145 43-7-15-21-25-39-25-17 0-31 10-38 25-52-5-101-20-145-43l11-19c6-10 3-23-7-29-4-2-7-3-11-3-7 0-14 4-18 11l-11 19c-48-30-88-71-119-119l19-11c10-6 14-18 8-28-4-7-11-11-18-11-4 0-7 1-10 3l-20 11c-23-44-38-93-43-145 15-6 25-21 25-38 0-17-10-32-25-39 5-51 20-100 43-145l20 12c10 5 22 2 28-8 6-10 2-23-8-29l-19-11c31-47 71-88 119-119l11 20c6 10 18 13 29 7 10-5 13-18 7-28l-11-20c44-23 93-38 145-43 6 15 21 26 38 26 18 0 32-11 39-26 52 5 101 20 145 43l-12 20c-5 10-2 23 8 28 10 6 23 3 29-7l11-20c48 31 88 72 119 119l-20 11c-10 6-13 19-7 29 5 10 18 13 28 8l20-12c23 45 38 94 43 145z" horiz-adv-x="1000" />

<glyph glyph-name="message" unicode="&#xe84a;" d="M893 698h-784c-56 0-102-46-102-102v-512c0-56 46-102 102-102h784c56 0 101 46 101 102v512c0 56-45 102-101 102z m0-630h-784c-4 0-8 2-11 5l267 238 121-108c5-4 10-6 15-6 5 0 10 2 14 6l122 108 267-238c-3-3-7-5-11-5z m-392 180l-403 359c3 3 7 5 11 5h784c4 0 8-2 11-5l-403-359z m-407 305l239-213-239-213v426z m575-213l239 213v-426l-239 213z" horiz-adv-x="1000" />

<glyph glyph-name="phone" unicode="&#xe84b;" d="M927 192c-74 33-131 52-228 73-5 2-10 2-16 2-6 0-57-1-77-32l-45-72c0 0-2-1-4-1-7 0-15 3-23 9-39 28-77 61-114 97-37 37-70 76-98 115-10 13-9 25-10 25l73 47c30 18 37 72 31 94-21 79-49 161-72 224-13 35-63 47-86 47-9 0-19-2-27-5-66-26-125-64-176-115-13-13-27-28-40-45l-8-11-1-14c-4-189 81-385 234-538l3-3c148-149 339-234 524-234l28 0 11 9c16 13 32 26 46 40 50 51 88 110 114 176 15 38-6 97-39 112z m-134-229c-9-8-18-17-28-25-162 1-331 77-462 208l-5 4c-131 131-208 304-209 464 9 10 17 19 25 28 42 42 92 74 145 95 3 0 7-1 11-3 21-59 47-134 65-202 1-3 0-8-1-12l-66-41c-19-12-31-31-36-54-6-30 3-63 23-91 31-42 66-84 106-125 41-39 82-75 124-105 50-36 119-30 145 13l41 65c4 1 8 2 10 2 87-19 140-36 204-64 2-4 3-9 4-10-22-55-54-105-96-147z m196 396c0-23-19-42-42-42-23 0-41 19-41 42 0 221-180 401-402 401-23 0-41 19-41 42s18 41 41 41c268 0 485-217 485-484z m-526 312c0 23 18 42 41 42 196 0 355-159 355-354 0-23-19-42-42-42-23 0-41 19-41 42 0 149-122 271-272 271-23 0-41 18-41 41z m0-137c0 23 18 42 41 42 120 0 218-98 218-217 0-23-19-42-42-42-23 0-41 19-41 42 0 74-61 134-135 134-23 0-41 18-41 41z" horiz-adv-x="1000" />

<glyph glyph-name="pen" unicode="&#xe84c;" d="M954 577c0 12-5 22-13 30l-203 203c-8 8-18 13-30 13s-22-5-30-13l-643-643c-7-7-11-17-12-27l-13-216c-1-12 4-24 13-33 8-8 18-12 30-12 0 0 1 0 2 0l216 13c10 0 20 5 27 12l643 643c8 8 13 19 13 30z m-704-601l-96-6c-7 26-27 46-53 54l6 95 497 497 41-42-475-475c-16-16-16-43 0-60 9-8 19-12 30-12 11 0 22 4 30 12l475 475 42-41-497-497z m557 557l-143 143 44 44 143-143-44-44z m189-605c0-23-19-42-43-42h-474c-24 0-43 19-43 42 0 24 19 43 43 43h474c24 0 43-19 43-43z" horiz-adv-x="1000" />

<glyph glyph-name="bear" unicode="&#xe84d;" d="M874 519c0 0 0 0 0 0 30-63 47-131 47-200 0-230-188-418-418-418s-418 188-418 418c0 55 10 110 31 163 2 6 9 9 14 7 6-3 9-9 7-15-20-50-30-103-30-155 0-218 178-396 396-396 218 0 396 178 396 396 0 70-18 139-51 202-1 1-1 1-2 2-13 26-30 50-48 73-4 5-3 12 1 16 5 4 12 3 16-2 3 2 6 3 10 2 7-3 15-3 22-3 7 1 12-3 13-9 0-6-4-12-10-13-3 0-6 0-9 0-3 0-6 0-8 0 11-15 21-31 30-48 2 1 4 1 6 2 57 13 96 64 96 122 0 69-56 126-125 126-57 0-105-37-121-91 8-5 15-10 23-16 5-4 6-11 2-16-4-5-11-6-16-2-9 7-18 14-27 20-1 0-1 0-1 1-58 37-121 57-186 59v-16c0-7-5-12-11-12-6 0-11 5-11 12v16c-77-2-152-31-217-82-2-1-5-2-7-2-3 0-6 1-9 4-3 5-3 12 2 16 7 5 15 11 22 16-15 55-64 93-121 93-70 0-126-57-126-126 0-59 40-109 96-122 5-2 9-2 14-3 6-1 10-6 9-12 0-6-5-10-11-10 0 0-1 0-1 0-5 1-11 2-16 3-67 16-113 75-113 144 0 82 66 148 148 148 65 0 121-42 140-102 62 38 131 58 201 58 69 0 136-20 196-56 21 59 76 100 141 100 81 0 148-66 148-148-1-69-47-128-114-144z m-675 91c2-2 5-4 7-4 3 0 6 2 8 4 8 8 14 17 18 27 2 6-1 12-7 14-6 2-12-1-14-6-3-8-7-14-13-20-4-4-4-11 1-15z m-71 98c5 3 6 10 2 15-3 5-10 6-15 3-9-7-16-15-22-24-3-6-1-13 4-16 2-1 4-1 6-1 4 0 7 2 9 6 4 6 10 12 16 17z m-35-44c-6-1-10-6-9-12 2-11 6-21 12-30 2-4 6-5 9-5 2 0 4 0 6 1 5 4 7 11 3 16-4 6-7 13-8 21-1 6-7 10-13 9z m43-73c8-3 16-4 24-4 3 0 6 0 8 1 7 0 11 6 10 12 0 6-6 10-12 10-8-1-16 0-23 2-6 2-12-1-14-7-2-6 2-12 7-14z m89 62c6 0 11 5 11 11 0 11-2 21-6 31-3 6-9 8-15 6-6-3-8-9-6-15 4-7 5-15 5-22 0-6 5-11 11-11z m-30 79c-10 5-21 8-32 8 0 0 0 0 0 0-6 0-11-4-11-10 0-6 4-12 10-12 8 0 16-2 23-6 1-1 3-1 5-1 4 0 7 2 9 6 3 6 1 12-4 15z m681 0c-10 5-20 8-31 8 0 0-1 0-1 0-6 0-10-4-11-10 0-6 5-12 11-12 8 0 15-2 22-6 2-1 3-1 5-1 4 0 8 2 10 6 3 6 0 12-5 15z m4-122c2-2 5-4 8-4 3 0 5 2 8 4 7 8 13 17 17 27 2 6-1 12-6 14-6 2-13-1-15-6-2-8-7-14-12-20-4-4-4-11 0-15z m-114 42c1-11 5-21 11-30 2-4 6-5 10-5 2 0 4 0 6 1 5 4 6 11 3 16-5 6-7 13-9 21-1 6-6 10-12 9-6-1-10-6-9-12z m13 34c1-1 3-1 5-1 4 0 8 2 10 6 4 6 9 12 15 17 5 3 6 10 3 15-4 5-11 6-16 3-9-7-16-15-21-24-3-6-2-12 4-16z m128-33c6 0 11 5 11 11 0 11-2 21-7 31-2 6-9 8-15 6-5-3-8-9-5-15 3-7 5-15 5-22 0-6 5-11 11-11z m-488-182c0-37-30-66-66-66-37 0-66 29-66 66s29 66 66 66c36 0 66-30 66-66z m-23 0c0 24-19 44-43 44-25 0-44-20-44-44 0-24 20-44 44-44 24 0 43 20 43 44z m254-66c-36 0-66 29-66 66s30 66 66 66c37 0 66-30 66-66s-29-66-66-66z m0 22c25 0 44 20 44 44 0 24-19 44-44 44-24 0-43-20-43-44 0-24 19-44 43-44z m-147 218c6 0 11 5 11 11v27c0 7-5 12-11 12-6 0-11-5-11-12v-27c0-6 5-11 11-11z m-11-206c0-6 5-11 11-11 6 0 11 5 11 11v28c0 6-5 11-11 11-6 0-11-5-11-11v-28z m0-44c0 6 5 11 11 11 6 0 11-5 11-11v-4l8 0c73 0 150 0 150-67 0-60-63-131-146-143 3-20 13-66 44-87 21-13 47-14 79-2 6 2 12-1 15-7 2-6-1-12-7-14-18-6-34-10-49-10-19 0-35 5-50 15-29 19-43 53-49 79-7-26-21-60-50-79-15-10-31-15-50-15-15 0-31 4-49 10-6 2-8 8-6 14 2 6 8 9 14 7 32-12 58-11 79 2 31 21 41 65 44 86-87 7-160 82-160 144 0 67 78 67 154 67l7 0v4z m-7-26c-82 0-131-3-131-45 0-54 70-122 149-122 85 0 146 73 146 122 0 38-37 45-127 45l-19 0 0 0c0 0 0 0 0 0 0 0 0 0 0 0l-18 0z m7 215c0-7 5-12 11-12 6 0 11 5 11 12v27c0 6-5 11-11 11-6 0-11-5-11-11v-27z m0-73c0-6 5-11 11-11 6 0 11 5 11 11v28c0 6-5 11-11 11-6 0-11-5-11-11v-28z" horiz-adv-x="1000" />

<glyph glyph-name="rss" unicode="&#xe851;" d="M956-150c-25 0-45 20-45 45 0 477-389 866-866 866-25 0-45 20-45 44 0 25 20 45 45 45 527 0 955-429 955-955 0-25-20-45-44-45m-268 0c-25 0-45 20-45 45 0 330-268 598-598 598-25 0-45 20-45 45 0 25 20 45 45 45 379 0 688-309 688-688 0-25-20-45-45-45m-282 0c-25 0-44 20-44 45 0 174-143 316-317 316-25 0-45 20-45 45 0 25 20 45 45 45 224 0 406-182 406-406 0-25-20-45-45-45m-304 203c-45 0-81-36-81-80 0-45 36-81 81-81 44 0 80 36 80 81 0 44-36 80-80 80" horiz-adv-x="1000" />

<glyph glyph-name="stack" unicode="&#xe85a;" d="M448 318l310-309c-40-41-87-73-140-95-54-23-110-34-170-34-78 0-151 19-218 58-67 39-120 92-158 159-40 66-59 139-59 218 0 79 20 152 59 218 38 67 91 120 158 159 67 39 139 58 218 58v-432z m450 288c-39 67-92 120-159 159-66 38-139 58-218 58v-436h435c0 79-19 152-58 219z m-344-291l309-309c41 40 73 86 95 140 23 53 34 110 34 169h-438z" horiz-adv-x="1000" />

<glyph glyph-name="tripadvisor-logotype" unicode="&#xe85b;" d="M613 637c28-4 55-11 82-19 47-15 92-35 134-61 2-2 6-3 10-3 49 0 98 0 147 0 4 0 8-1 12-1 0-1 0-1 0-1-2-4-5-7-7-11-17-26-31-52-39-82-1-3-1-6 1-9 44-63 57-132 39-206-16-65-53-116-110-152-41-26-85-38-133-38-20 0-40 2-60 7-48 13-89 37-123 73-4 5-9 10-13 15-18-27-36-53-54-80-18 27-35 53-53 79-1-1-1-1-1-1-1 0-1-1-1-1-41-48-93-78-156-88-34-6-69-4-103 6-48 13-89 38-122 76-32 36-52 79-60 127-8 45 2 88 5 99 7 31 21 59 39 85 1 1 2 5 1 7-7 27-20 52-35 75-4 6-8 12-13 18 0 0 0 1 0 2 1 0 2 0 3 0 50 0 100 0 151 0 2 0 4 1 6 2 35 22 73 40 113 54 28 10 57 18 87 24 29 6 58 9 87 11 71 6 128-2 166-7z m-63-332c0-110 89-201 199-200 111 0 200 88 200 199 0 116-93 202-204 200-109-3-194-90-195-199z m-300 200c-107 0-201-89-199-203 2-107 90-197 202-196 109 1 197 90 197 198 0 111-89 201-200 201z m10 52c61-4 114-25 159-66 45-41 72-92 81-152 10 59 36 110 80 150 44 41 96 62 156 66-71 32-145 45-222 47-88 2-173-11-254-45z m489-126c68 0 124-55 124-123 0-69-55-122-119-124-72-3-129 54-129 123 0 70 58 125 124 124z m81-124c0 45-36 81-81 81-44 0-81-36-81-80 0-44 36-81 81-81 44-1 81 36 81 80z m-582 124c68 0 123-55 123-123 0-69-54-121-117-124-72-3-130 54-130 124 0 70 58 124 124 123z m80-123c0 45-36 80-81 80-44 0-81-37-80-81 0-44 36-80 81-80 44-1 80 36 80 81z m421 40c23 0 41-18 41-41 0-22-18-40-41-40-23 0-41 18-41 40 0 23 18 41 41 41z m-501 1c23 0 41-19 41-41 0-23-18-42-41-42-24 0-42 18-42 42 0 23 18 41 42 41z" horiz-adv-x="1000" />

<glyph glyph-name="arrow-right" unicode="&#xe89c;" d="M74-150c-19 0-38 7-52 22-29 28-29 75 0 104l373 374-373 374c-29 29-29 76 0 104 29 29 75 29 104 0l426-426c29-28 29-75 0-104l-426-426c-14-15-33-22-52-22" horiz-adv-x="574" />

<glyph glyph-name="arrow-left" unicode="&#xe89d;" d="M500-150c-19 0-38 7-52 22l-426 426c-29 29-29 76 0 104l426 426c28 29 75 29 104 0 29-28 29-75 0-104l-373-374 373-374c29-29 29-76 0-104-14-15-33-22-52-22" horiz-adv-x="574" />

<glyph glyph-name="sticky" unicode="&#xe8a0;" d="M586 92c-12 0-23 4-32 13-17 17-17 45 0 63l221 221c85 85 85 223 0 308-85 85-223 85-308 0l-391-391c-17-17-45-17-63 0-17 18-17 46 0 63l391 391c120 120 315 120 434 0 120-120 120-314 0-434l-221-221c-8-9-20-13-31-13m-318-242c-58 0-116 22-160 66-43 43-67 100-67 161 0 61 24 118 67 161l179 179c17 17 46 17 63 0 18-18 18-46 0-64l-179-179c-26-26-40-60-40-97 0-37 14-71 40-97 54-54 141-54 195 0l179 179c17 17 46 17 63 0 18-18 18-46 0-63l-179-180c-44-44-102-66-161-66m117 246c-12 0-23 4-32 13-18 17-18 46 0 63l299 299c25 25 25 67 0 92-25 25-68 25-92 0l-225-225c-18-18-46-18-64 0-17 17-17 46 0 63l225 225c30 29 68 45 110 45 41 0 80-16 109-45 60-60 60-158 0-218l-299-299c-9-9-20-13-31-13" horiz-adv-x="928" />

<glyph glyph-name="arrow-bottom" unicode="&#xe8a4;" d="M1179-150c-23 0-46 7-65 21l-1068 777c-50 36-61 106-25 156 37 50 107 61 156 25l1002-729 1003 729c49 36 119 25 155-25 37-50 26-120-24-156l-1068-777c-19-14-43-21-66-21" horiz-adv-x="2359" />

<glyph glyph-name="notice" unicode="&#xe8a6;" d="M542 410l0-249c0-18-4-31-13-39-8-9-18-14-31-14-13 0-23 5-31 14-8 9-12 22-12 39l0 246c0 18 4 30 12 39 8 9 18 13 31 13 13 0 23-4 31-13 9-9 13-21 13-36m-43 89c-12 0-22 4-31 11-8 8-13 18-13 31 0 13 5 23 13 31 9 7 19 11 31 11 11 0 21-3 30-10 8-7 13-18 13-32 0-13-5-23-13-31-8-7-18-11-30-11m1 266c-111 0-215-43-293-121-79-79-122-183-122-294 0-111 43-215 122-294 78-78 182-121 293-121 111 0 215 43 294 122 161 161 161 425 0 587-79 78-183 121-294 121m0-915c-134 0-259 52-353 146-95 95-147 220-147 354 0 134 52 259 147 354 94 94 220 146 353 146 134 0 259-52 354-146 194-195 195-512 0-708-95-94-220-146-354-146" horiz-adv-x="1000" />

<glyph glyph-name="compas" unicode="&#xe8a7;" d="M500 766c-229 0-416-187-416-416 0-229 187-416 416-416 229 0 416 187 416 416 0 229-187 416-416 416m0-916c-276 0-500 224-500 500 0 276 224 500 500 500 276 0 500-224 500-500 0-276-224-500-500-500m-54 555l-84-193 192 84 84 192-192-83z m-144-285c-8 0-16 3-22 9-9 9-12 23-7 35l120 277c3 7 9 13 16 16l277 120c12 5 26 3 35-6 9-9 11-23 6-35l-120-277c-3-7-9-13-16-16l-277-120c-4-2-8-3-12-3m248 149c-8 0-16 3-22 9l-128 128c-12 12-12 32 0 44 12 13 32 13 44 0l128-128c13-12 13-32 0-44-6-6-14-9-22-9" horiz-adv-x="1000" />

<glyph glyph-name="warning" unicode="&#xe8a8;" d="M567 50c-12 0-23 4-32 12-9 8-13 19-13 32 0 13 4 23 13 31 8 9 19 13 31 13 12 0 23-4 32-13 8-8 13-18 13-31 0-13-5-24-14-32-8-8-19-12-30-12m-33 194l-10 141c-1 27-2 47-2 59 0 16 4 29 13 38 8 9 19 14 33 14 17 0 28-6 34-18 6-11 9-28 9-50 0-13-1-26-2-40l-13-145c-1-17-4-30-9-39-4-10-12-14-22-14-11 0-18 4-22 13-4 9-7 23-9 41m-416-308l908 0-454 786-454-786z m982-86l-1057 0c-15 0-30 8-37 21-8 14-8 30 0 43l528 916c16 27 60 27 75 0l528-916c8-13 8-29 0-43-7-13-21-21-37-21" horiz-adv-x="1143" />

<glyph glyph-name="done" unicode="&#xe8a9;" d="M385-150c-14 0-27 6-37 16l-334 351c-19 20-19 52 2 71 20 19 52 18 71-2l295-310 701 856c18 21 49 24 71 7 22-18 25-50 7-71l-738-900c-9-11-22-17-37-18 0 0-1 0-1 0" horiz-adv-x="1172" />

<glyph glyph-name="download" unicode="&#xe8aa;" d="M813 160l-99 0c-23 0-42 18-42 41 0 23 19 42 42 42l99 0c32 0 61 13 83 37 36 33 54 73 54 117 0 85-69 155-154 155-16 0-32-3-48-8-12-4-25-2-35 5-11 7-17 18-19 30-10 107-99 188-207 188-115 0-208-93-208-208 0-14 1-27 4-41 3-12-1-25-8-35-8-9-20-15-33-15l-46 0c-62 0-113-50-113-112 0-63 51-113 113-113l123 0c23 0 42-19 42-42 0-23-19-41-42-41l-123 0c-108 0-196 88-196 196 0 108 88 195 196 195l0 0c0 3 0 5 0 8 0 160 130 291 291 291 135 0 249-90 282-217 9 1 18 2 27 2 130 0 237-107 237-238 0-66-29-130-78-175-34-39-87-62-142-62m-297-310c-8 0-17 3-24 8l-240 175c-19 14-23 40-10 58 14 19 40 23 59 9l215-157 217 157c18 14 44 10 58-9 13-18 9-44-10-58l-240-175c-7-5-16-8-25-8m0 0c-23 0-41 19-41 42l0 532c0 23 18 42 41 42 23 0 42-19 42-42l0-532c0-23-19-42-42-42" horiz-adv-x="1033" />

<glyph glyph-name="arrow-dropdown" unicode="&#xe8b0;" d="M1698 2c0-39-15-78-45-108-59-59-155-59-214 0l-590 590-590-590c-59-59-155-59-215 0-59 60-59 156 1 215l697 697c59 59 155 59 214 0l697-697c30-30 45-68 45-107" horiz-adv-x="1698" />

<glyph glyph-name="cost" unicode="&#xe8b2;" d="M667 349l0-106c17 11 29 24 38 38 9 14 13 27 13 40 0 14-4 23-13 27-8 3-21 4-38 1m-30 57l0 93c-14-10-24-21-32-31-8-10-11-22-11-35 0-13 3-21 10-24 7-3 18-4 33-3m30 181l0-26c18 6 32 9 45 10 12 0 23-3 32-10 7-5 13-11 17-18 4-7 6-14 6-21 0-8-3-16-9-25-6-8-13-14-21-18-16-7-27-3-31 12-6 17-18 25-39 22l0-101c20 4 36 7 48 7 12 1 23 0 32-5 10-4 18-11 23-22 5-10 8-22 8-37 0-18-4-37-13-57-8-19-21-38-38-56-17-18-37-33-60-46l0-60c0-9-1-17-2-22-2-5-6-9-13-12-5-3-9-3-12-1-2 3-3 8-3 15l0 65c-19-7-36-10-50-10-14 1-26 4-35 10-9 6-16 13-21 22-4 9-7 19-7 29 0 8 3 16 9 25 6 9 14 15 23 19 7 3 13 4 18 3 5-1 9-4 11-9 4-11 8-20 11-25 3-6 8-10 15-13 6-2 15-3 26-1l0 113c-22-5-40-6-54-6-15 1-27 6-36 16-9 9-13 25-13 46 0 28 9 54 26 80 18 25 43 47 77 66l0 26c0 13 5 22 15 27 10 5 15 1 15-12m-558-580c52-32 107-48 166-48l0 0c113 0 230 55 353 114 129 61 262 124 399 124 59 0 114-11 166-34l0 530c-52 32-106 48-166 48-113 0-229-55-352-114-129-61-262-124-400-124-58 0-113 11-166 34l0-530z m166-157c-91 0-174 27-252 84-14 10-23 26-23 44l0 653c0 21 12 39 30 49 18 9 40 7 57-4 59-43 120-64 188-64 113 0 230 56 353 114 129 61 262 124 399 124 92 0 175-27 253-84 14-10 22-26 22-44l0-653c0-21-11-39-29-49-18-9-40-7-57 5-59 42-121 63-189 63-113 0-229-55-352-114-129-61-262-124-400-124l0 0z m0 548c-28 0-55 2-81 8-14 3-22 16-19 30 2 13 16 22 29 19 77-16 161-5 266 34 13 5 27-2 32-15 5-13-2-27-15-32-79-30-148-44-212-44m549 195c-10 0-20 6-24 16-4 13 2 27 15 32 114 43 208 54 294 36 13-3 22-16 19-30-3-13-16-22-30-19-76 16-160 5-265-34-3-1-6-1-9-1m-549-578c-28 0-55 2-81 8-14 3-22 16-19 30 2 13 16 22 29 19 77-16 161-5 266 34 13 5 27-2 32-15 5-13-2-27-15-32-79-30-148-44-212-44m549 195c-10 0-20 6-24 16-4 13 2 27 15 32 114 43 208 54 294 36 13-3 22-16 19-30-3-13-16-22-30-19-76 16-160 5-265-34-3-1-6-1-9-1" horiz-adv-x="1302" />

<glyph glyph-name="gplus" unicode="&#xf0d5;" d="M802 341q0-117-49-207t-138-142-206-51q-83 0-159 32t-131 87-87 131-32 159 32 159 87 131 131 87 159 32q160 0 274-107l-111-107q-65 63-163 63-69 0-127-34t-92-94-34-130 34-130 92-94 127-34q46 0 85 13t64 32 44 43 27 47 12 41h-232v141h386q7-36 7-68z m484 68v-118h-117v-116h-117v116h-117v118h117v116h117v-116h117z" horiz-adv-x="1285.7" />

<glyph glyph-name="instagram" unicode="&#xf16d;" d="M571 350q0 59-41 101t-101 42-101-42-42-101 42-101 101-42 101 42 41 101z m77 0q0-91-64-156t-155-64-156 64-64 156 64 156 156 64 155-64 64-156z m61 229q0-21-15-36t-37-15-36 15-15 36 15 36 36 15 37-15 15-36z m-280 123q-4 0-43 0t-59 0-54-2-57-5-40-11q-28-11-49-32t-33-49q-6-16-10-40t-6-58-1-53 0-59 0-43 0-43 0-59 1-53 6-58 10-40q12-28 33-49t49-32q16-6 40-11t57-5 54-2 59 0 43 0 42 0 59 0 54 2 58 5 39 11q28 11 50 32t32 49q6 16 10 40t6 58 1 53 0 59 0 43 0 43 0 59-1 53-6 58-10 40q-11 28-32 49t-50 32q-16 6-39 11t-58 5-54 2-59 0-42 0z m428-352q0-128-3-177-5-116-69-180t-179-69q-50-3-177-3t-177 3q-116 6-180 69t-69 180q-3 49-3 177t3 177q5 116 69 180t180 69q49 3 177 3t177-3q116-6 179-69t69-180q3-49 3-177z" horiz-adv-x="857.1" />

<glyph glyph-name="google" unicode="&#xf1a0;" d="M429 411h404q7-37 7-71 0-121-51-216t-145-149-215-54q-88 0-167 34t-137 91-91 137-34 167 34 167 91 137 137 91 167 34q167 0 287-113l-117-112q-68 67-170 67-72 0-133-37t-97-98-36-136 36-136 97-98 133-37q48 0 89 14t67 33 46 46 28 49 13 43h-243v147z" horiz-adv-x="857.1" />

<glyph glyph-name="snapchat" unicode="&#xf2ab;" d="M714 209q0 13-12 15-38 9-66 33t-45 61q-4 10-4 14 0 8 11 14t24 10 24 11 11 20q0 11-10 18t-22 7q-7 0-18-4t-17-5q-2 0-7 1 3 53 3 64 0 44-9 63-21 44-58 68t-85 24q-111 0-153-92-10-19-10-63 0-11 3-64-2-1-8-1-6 0-18 4t-16 4q-12 0-22-6t-10-18q0-12 11-20t24-11 24-10 11-14q0-4-4-14-35-77-110-94-13-2-13-15 0-25 77-38 1-2 3-14t7-17 13-5q6 0 21 2t22 3q19 0 37-9t30-18 32-18 43-8q24 0 44 8t32 18 30 18 37 9q8 0 23-3t21-2q9 0 13 6t6 17 3 13q77 13 77 38z m143 141q0-117-57-215t-156-156-215-58-216 58-155 156-58 215 58 215 155 156 216 58 215-58 156-156 57-215z" horiz-adv-x="857.1" />

<glyph glyph-name="snapchat-ghost" unicode="&#xf2ac;" d="M473 779q75 0 134-39t92-107q15-32 15-100 0-26-5-106 8-4 15-4 10 0 29 7t28 8q16 0 32-10t15-26q0-18-18-30t-38-18-39-16-18-26q0-9 7-24 21-46 57-84t81-57q16-6 45-12 15-4 15-20 0-39-122-57-4-6-6-22t-8-26-18-10q-11 0-35 3t-36 4q-20 0-34-3-18-3-35-13t-33-21-32-22-43-19-55-8q-29 0-54 8t-41 19-33 22-32 21-35 13q-14 3-35 3-13 0-36-4t-33-5q-14 0-19 11t-8 26-6 23q-123 18-123 57 0 16 16 20 29 6 45 12 43 18 80 57t58 84q6 15 6 24 0 15-17 26t-39 17-39 17-18 29q0 15 15 26t31 10q8 0 26-7t30-7q10 0 18 4-5 79-5 106 0 68 15 100 36 76 96 110t147 36z" horiz-adv-x="928.6" />

<glyph glyph-name="snapchat-square" unicode="&#xf2ad;" d="M714 209q0 13-12 15-37 8-66 33t-44 61q-4 7-4 14 0 8 11 14t23 10 24 11 11 20q0 11-10 18t-22 7q-6 0-17-4t-18-5q-2 0-7 1 3 35 3 64 0 44-9 64-21 43-58 68t-85 24q-110 0-153-92-10-21-10-64 0-21 3-64-6-1-8-1-6 0-18 5t-17 4q-11 0-21-7t-10-18q0-12 11-20t24-11 24-10 11-14q0-7-4-14-36-77-111-94-12-2-12-15 0-26 77-38 1-3 3-15t6-17 13-5q7 0 22 3t21 3q20 0 38-9t30-18 32-18 43-8q24 0 44 8t32 18 30 18 38 9q7 0 22-3t22-2q8 0 12 5t7 17 2 14q77 12 77 38z m143 409v-536q0-66-47-113t-114-48h-535q-67 0-114 48t-47 113v536q0 66 47 113t114 48h535q67 0 114-48t47-113z" horiz-adv-x="857.1" />
</font>
</defs>
</svg>
